<svg id="svg" version="1.1" xmlns="http://www.w3.org/2000/svg" xmlns:xlink="http://www.w3.org/1999/xlink" width="150" height="149" viewBox="0, 0, 400,372.2595078299776"><g id="svgg"><path id="path0" d="M198.883 43.942 C 198.883 45.021,198.363 45.666,194.559 49.307 C 189.015 54.614,184.473 60.674,181.967 66.108 C 181.589 66.927,180.967 68.258,180.584 69.064 C 180.201 69.871,179.888 70.801,179.888 71.131 C 179.888 71.462,179.748 71.891,179.577 72.086 C 178.825 72.942,177.347 78.252,176.576 82.868 C 176.370 84.097,176.026 86.118,175.811 87.359 C 174.128 97.057,176.470 108.682,182.230 119.228 C 184.330 123.073,187.799 127.487,191.938 131.583 C 197.358 136.947,198.262 137.346,198.684 134.563 C 199.633 128.319,200.237 126.756,200.346 130.265 C 200.439 133.238,203.071 136.070,204.749 135.002 C 208.391 132.683,217.042 121.895,218.847 117.422 C 219.159 116.648,219.715 115.345,220.083 114.525 C 224.336 105.049,225.052 88.228,221.573 79.516 C 221.410 79.106,221.167 78.352,221.035 77.840 C 220.572 76.052,218.107 69.819,217.206 68.156 C 214.681 63.500,213.818 62.111,211.469 58.925 C 210.067 57.023,207.709 54.202,206.229 52.657 C 203.333 49.634,200.399 45.620,200.383 44.657 C 200.377 44.331,200.037 43.760,199.628 43.389 C 198.897 42.728,198.883 42.739,198.883 43.942 M106.890 140.535 C 105.968 141.001,104.612 141.732,103.876 142.160 C 103.140 142.588,100.123 144.319,97.172 146.006 C 94.221 147.694,90.801 149.696,89.572 150.456 C 88.343 151.216,86.556 152.272,85.601 152.802 C 74.017 159.234,71.202 161.092,70.237 162.942 C 69.306 164.728,68.800 204.538,69.668 207.689 C 70.208 209.648,72.052 211.427,75.419 213.240 C 76.853 214.012,79.166 215.283,80.558 216.065 C 88.714 220.646,95.822 219.635,98.776 213.474 C 99.704 211.537,100.363 170.747,99.491 169.189 C 99.076 168.448,94.473 168.433,93.575 169.169 C 93.213 169.466,93.110 174.077,93.110 189.920 L 93.110 210.289 91.967 211.383 C 90.020 213.246,87.141 212.965,82.907 210.497 C 81.086 209.435,79.539 208.566,79.470 208.566 C 79.401 208.566,78.419 207.974,77.288 207.251 L 75.233 205.936 75.233 185.894 C 75.233 164.826,75.248 164.618,76.815 164.618 C 76.935 164.618,78.738 163.613,80.819 162.384 C 82.901 161.155,84.664 160.149,84.737 160.149 C 84.810 160.149,86.933 158.919,89.455 157.415 C 98.147 152.233,108.930 146.108,109.910 145.797 C 110.637 145.567,111.675 146.102,122.501 152.291 C 125.045 153.745,127.180 154.935,127.246 154.935 C 127.312 154.935,128.500 155.661,129.884 156.548 C 131.269 157.435,133.156 158.582,134.078 159.098 C 141.241 163.104,144.733 165.161,144.966 165.511 C 145.117 165.737,145.240 174.888,145.240 185.847 C 145.240 196.806,145.117 205.957,144.966 206.183 C 144.816 206.408,143.687 207.143,142.458 207.815 C 141.229 208.487,140.056 209.165,139.851 209.321 C 139.646 209.478,138.641 210.070,137.616 210.637 C 133.903 212.694,133.402 212.987,130.416 214.858 C 128.748 215.904,127.310 216.760,127.223 216.760 C 127.135 216.760,125.359 217.765,123.277 218.994 C 121.196 220.223,119.436 221.229,119.367 221.229 C 119.298 221.229,117.537 222.235,115.455 223.465 C 110.425 226.434,110.387 226.440,107.558 224.713 C 105.015 223.161,102.687 221.817,101.454 221.187 C 100.824 220.866,100.194 221.013,98.210 221.940 C 96.856 222.573,95.573 223.091,95.360 223.091 C 95.147 223.091,94.972 223.426,94.972 223.836 C 94.972 224.246,95.128 224.581,95.319 224.581 C 95.510 224.581,97.814 225.859,100.440 227.420 C 107.157 231.415,107.288 231.486,108.872 232.008 C 110.804 232.645,112.820 232.102,116.415 229.977 C 117.970 229.058,119.298 228.305,119.367 228.305 C 119.436 228.305,121.196 227.300,123.277 226.071 C 125.359 224.842,127.112 223.836,127.173 223.836 C 127.234 223.836,129.652 222.412,132.545 220.670 C 135.439 218.929,137.893 217.505,137.998 217.505 C 138.104 217.505,138.874 217.073,139.709 216.545 C 141.179 215.618,142.153 215.059,146.247 212.797 C 151.575 209.852,151.210 211.819,151.210 186.040 C 151.210 162.620,151.219 162.730,149.303 161.046 C 148.816 160.618,144.395 157.966,139.479 155.154 C 134.562 152.341,129.761 149.564,128.808 148.982 C 127.856 148.400,126.347 147.511,125.456 147.007 C 123.081 145.662,118.691 143.151,117.061 142.205 C 112.089 139.320,109.980 138.974,106.890 140.535 M267.956 164.589 C 262.472 165.469,257.280 170.066,254.822 176.218 C 252.566 181.862,252.965 191.316,255.693 196.836 C 262.691 211.000,286.693 209.526,290.328 194.709 C 290.615 193.538,290.360 193.440,286.336 193.176 L 283.845 193.013 282.425 195.456 C 276.496 205.661,262.037 201.869,260.401 189.680 C 260.002 186.712,258.551 186.965,276.008 186.965 L 290.875 186.965 290.875 184.194 C 290.875 170.751,281.190 162.466,267.956 164.589 M296.462 165.372 C 296.462 165.596,299.395 169.978,302.980 175.110 C 306.564 180.241,309.497 184.595,309.497 184.785 C 309.497 185.105,304.547 192.307,298.062 201.420 C 294.801 206.003,294.788 205.959,299.439 205.959 L 303.117 205.959 304.166 204.455 C 304.742 203.628,305.801 202.123,306.518 201.111 C 307.235 200.100,309.078 197.429,310.615 195.178 C 313.375 191.132,314.436 190.282,314.975 191.686 C 315.200 192.274,318.423 197.145,322.630 203.259 L 324.488 205.959 328.144 205.959 C 332.469 205.959,332.601 205.841,330.897 203.487 C 327.157 198.320,319.052 186.642,318.565 185.718 C 317.937 184.525,317.242 185.738,324.459 175.419 C 326.249 172.858,328.099 170.207,328.569 169.527 C 329.038 168.848,329.800 167.818,330.261 167.239 C 331.831 165.267,331.509 164.990,327.654 164.996 C 323.349 165.004,324.025 164.469,318.678 172.084 C 316.189 175.628,313.967 178.589,313.739 178.664 C 313.366 178.785,311.843 176.689,305.969 167.970 L 304.087 165.177 300.274 165.071 C 297.698 164.999,296.462 165.097,296.462 165.372 M113.083 168.185 C 108.636 169.397,105.037 172.860,104.463 176.478 C 103.370 183.361,107.357 187.179,116.946 188.433 C 130.488 190.204,131.782 190.838,130.947 195.293 C 129.823 201.283,109.870 200.308,109.870 194.263 C 109.870 192.289,109.135 191.806,106.129 191.806 C 102.516 191.806,102.007 193.804,104.439 198.436 C 109.581 208.231,133.217 207.271,137.182 197.106 C 140.036 189.791,135.682 184.857,124.953 183.249 C 111.551 181.241,110.818 180.969,110.818 178.017 C 110.818 174.715,113.670 173.423,120.545 173.612 C 126.681 173.780,128.248 174.524,129.859 178.034 L 130.881 180.261 133.371 180.261 C 136.219 180.261,136.459 180.018,136.068 177.531 C 135.290 172.575,132.207 169.505,126.629 168.129 C 124.003 167.482,115.534 167.517,113.083 168.185 M275.183 169.891 C 278.210 170.590,282.159 174.125,282.814 176.723 C 282.918 177.132,283.176 178.138,283.389 178.957 C 284.160 181.925,284.803 181.773,271.947 181.663 L 260.521 181.564 260.552 180.005 C 260.679 173.464,268.185 168.276,275.183 169.891 M177.032 233.714 C 171.218 236.611,169.201 248.010,172.614 258.673 C 172.884 259.514,170.960 260.708,169.336 260.708 C 168.871 260.708,168.332 260.849,168.138 261.022 C 167.943 261.195,166.611 261.816,165.177 262.403 C 155.097 266.529,150.034 273.828,153.166 279.718 C 154.524 282.272,161.162 288.268,162.632 288.268 C 162.739 288.268,164.026 288.840,165.492 289.538 C 166.957 290.236,169.120 291.109,170.298 291.477 C 172.305 292.105,172.712 292.521,172.439 293.669 C 168.214 311.422,174.014 322.171,185.661 318.172 C 188.993 317.029,195.665 313.314,196.648 312.056 C 196.750 311.925,197.743 311.065,198.853 310.145 L 200.873 308.472 204.068 311.155 C 221.067 325.430,233.550 318.971,229.944 297.765 C 229.630 295.922,229.286 293.897,229.179 293.266 C 228.997 292.196,230.833 290.875,232.502 290.875 C 232.646 290.875,234.484 290.041,236.587 289.022 C 251.590 281.752,253.236 272.533,240.893 264.914 C 238.317 263.324,233.510 261.148,231.486 260.655 C 229.310 260.126,228.951 259.698,229.200 257.935 C 230.340 249.863,230.434 243.115,229.438 240.782 C 229.263 240.372,228.852 239.320,228.525 238.443 C 226.499 233.013,219.793 231.081,214.065 234.276 C 213.709 234.475,213.251 234.637,213.048 234.637 C 212.844 234.637,211.760 235.223,210.640 235.940 C 209.519 236.657,208.455 237.244,208.276 237.244 C 208.098 237.244,207.557 237.663,207.076 238.175 C 206.595 238.687,206.036 239.106,205.835 239.106 C 205.633 239.106,204.501 240.028,203.320 241.155 C 200.706 243.648,200.940 243.645,198.066 241.228 C 194.295 238.058,192.074 236.559,188.827 234.993 C 183.782 232.560,180.140 232.166,177.032 233.714 M183.056 237.004 C 186.929 238.036,192.785 241.441,196.182 244.636 C 198.128 246.465,198.134 246.323,195.991 248.678 C 195.021 249.743,193.226 251.899,192.002 253.468 C 189.712 256.404,188.868 256.983,186.882 256.983 C 186.248 256.983,183.913 257.331,181.693 257.756 C 176.800 258.692,176.470 258.646,176.057 256.981 C 173.691 247.447,174.952 238.761,178.957 237.015 C 180.373 236.398,180.776 236.397,183.056 237.004 M222.257 236.896 C 225.856 238.151,227.416 246.474,225.770 255.636 C 225.213 258.737,225.201 258.742,220.760 257.935 C 218.662 257.553,215.940 257.126,214.711 256.986 C 211.896 256.666,211.536 256.495,210.579 255.020 C 210.149 254.359,208.425 252.185,206.747 250.189 C 202.969 245.696,202.867 246.026,209.462 241.336 C 215.022 237.380,219.344 235.881,222.257 236.896 M203.587 252.311 C 206.613 256.156,206.691 256.052,200.776 256.052 C 194.789 256.052,194.771 256.033,197.630 252.637 C 200.943 248.700,200.753 248.711,203.587 252.311 M209.479 260.566 C 210.123 260.813,215.192 269.097,217.915 274.355 L 218.714 275.898 217.227 278.638 C 216.408 280.145,215.340 282.062,214.853 282.897 C 214.365 283.733,213.128 285.870,212.104 287.648 C 209.812 291.625,210.412 291.434,200.239 291.434 L 192.097 291.434 191.003 290.130 C 190.401 289.413,189.444 287.989,188.875 286.965 C 188.307 285.940,187.504 284.516,187.092 283.799 C 186.052 281.992,183.945 278.204,183.395 277.154 C 182.702 275.828,183.934 272.861,187.484 267.312 C 188.223 266.157,188.827 265.117,188.827 265.001 C 188.827 264.733,190.658 261.854,191.379 260.987 C 191.932 260.322,207.878 259.951,209.479 260.566 M186.028 261.444 C 186.152 261.644,185.669 262.721,184.955 263.837 C 184.242 264.953,183.128 266.884,182.480 268.129 C 180.915 271.137,180.557 271.076,179.343 267.598 C 178.985 266.574,178.527 265.383,178.326 264.953 C 177.645 263.499,178.088 262.440,179.516 262.110 C 183.823 261.113,185.705 260.921,186.028 261.444 M220.391 261.860 C 220.879 262.046,221.760 262.197,222.349 262.197 C 224.183 262.197,224.078 263.062,221.520 269.007 C 220.641 271.051,220.146 270.859,218.781 267.947 C 218.403 267.140,217.460 265.475,216.685 264.246 C 214.739 261.157,214.791 260.934,217.387 261.259 C 218.552 261.404,219.904 261.675,220.391 261.860 M173.935 264.443 C 174.158 264.859,174.646 266.159,175.021 267.332 C 175.396 268.506,176.077 270.302,176.535 271.325 C 176.993 272.348,177.605 273.723,177.894 274.380 C 178.413 275.561,178.267 277.275,177.612 277.679 C 177.430 277.792,177.281 278.126,177.281 278.422 C 177.281 278.718,176.900 279.756,176.435 280.728 C 175.969 281.700,175.367 283.250,175.096 284.171 C 173.648 289.093,173.546 289.109,166.108 285.571 C 156.062 280.793,154.052 276.416,159.181 270.489 C 160.522 268.940,166.487 265.757,170.577 264.409 C 173.222 263.537,173.452 263.540,173.935 264.443 M230.218 264.283 C 237.631 266.494,245.438 272.397,245.438 275.791 C 245.438 279.011,237.791 285.143,231.285 287.142 C 230.363 287.426,229.421 287.798,229.191 287.969 C 228.321 288.618,227.579 287.755,226.779 285.164 C 226.326 283.696,225.828 282.244,225.673 281.937 C 225.048 280.703,223.551 277.230,223.301 276.432 C 223.112 275.830,223.519 274.418,224.697 271.590 C 225.611 269.394,226.576 266.844,226.840 265.922 C 227.594 263.288,227.323 263.420,230.218 264.283 M198.754 267.452 C 189.436 269.635,190.489 283.525,200.015 284.100 C 203.869 284.332,206.654 282.735,208.398 279.293 C 211.485 273.201,205.513 265.868,198.754 267.452 M181.750 282.156 C 181.750 282.457,182.756 284.299,183.985 286.250 C 186.723 290.596,186.789 291.047,184.637 290.764 C 177.709 289.851,177.217 289.523,178.385 286.592 C 179.754 283.156,180.095 282.416,180.567 281.852 C 181.158 281.146,181.750 281.298,181.750 282.156 M221.311 282.030 C 222.193 283.397,223.924 288.247,223.720 288.778 C 223.442 289.502,215.894 291.251,215.359 290.716 C 215.213 290.570,215.528 289.666,216.059 288.707 C 220.777 280.195,220.420 280.648,221.311 282.030 M225.236 293.575 C 226.370 294.987,226.821 307.121,225.855 310.200 C 224.555 314.340,220.999 316.182,217.243 314.662 C 211.637 312.393,204.097 307.133,204.097 305.491 C 204.097 305.212,205.236 303.611,206.628 301.933 C 208.021 300.255,209.719 298.096,210.401 297.134 C 211.671 295.346,213.290 294.645,216.313 294.577 C 216.866 294.565,218.827 294.244,220.670 293.865 C 224.834 293.008,224.783 293.011,225.236 293.575 M181.346 294.043 C 183.105 294.352,185.717 294.781,187.151 294.997 L 189.758 295.389 191.513 297.695 C 192.478 298.963,193.654 300.419,194.126 300.931 C 195.604 302.535,197.765 305.279,197.765 305.552 C 197.765 307.181,188.811 313.125,184.023 314.674 C 180.439 315.834,176.232 314.218,176.177 311.661 C 176.170 311.314,176.017 310.940,175.838 310.830 C 174.606 310.068,174.564 299.310,175.779 295.717 C 175.952 295.205,176.188 294.493,176.303 294.134 C 176.559 293.338,177.252 293.325,181.346 294.043 M206.105 295.651 C 206.440 296.193,201.678 302.421,200.929 302.421 C 200.030 302.421,194.915 296.084,195.412 295.587 C 195.769 295.230,205.882 295.291,206.105 295.651 " stroke="none" fill="#38b382" fill-rule="evenodd"></path><path id="path1" d="M200.811 148.479 C 200.992 149.414,201.862 149.542,201.862 148.634 C 201.862 148.177,201.622 147.858,201.276 147.858 C 200.929 147.858,200.739 148.112,200.811 148.479 M155.049 230.278 C 110.656 274.710,108.355 277.095,109.896 277.095 C 110.412 277.095,111.359 278.042,111.359 278.558 C 111.359 278.778,111.533 278.957,111.744 278.957 C 112.266 278.957,114.319 281.088,114.054 281.353 C 113.937 281.469,114.050 281.564,114.303 281.564 C 114.870 281.564,115.829 282.484,115.829 283.027 C 115.829 283.247,116.008 283.426,116.228 283.426 C 116.662 283.426,117.691 284.343,117.691 284.730 C 117.691 284.862,117.930 285.209,118.223 285.501 C 118.516 285.794,118.863 286.034,118.994 286.034 C 119.381 286.034,120.298 287.063,120.298 287.497 C 120.298 287.716,120.478 287.896,120.697 287.896 C 121.131 287.896,122.160 288.813,122.160 289.199 C 122.160 289.510,123.153 290.503,123.464 290.503 C 123.850 290.503,124.767 291.532,124.767 291.966 C 124.767 292.185,124.947 292.365,125.166 292.365 C 125.692 292.365,126.629 293.317,126.629 293.850 C 126.629 294.082,126.797 294.168,127.002 294.041 C 127.207 293.914,127.374 294.072,127.374 294.391 C 127.374 294.711,127.554 294.972,127.773 294.972 C 128.289 294.972,129.236 295.920,129.236 296.435 C 129.236 296.655,129.416 296.834,129.636 296.834 C 130.151 296.834,131.099 297.782,131.099 298.297 C 131.099 298.517,131.224 298.697,131.378 298.697 C 131.854 298.698,133.706 300.435,133.706 300.881 C 133.706 301.114,133.885 301.304,134.105 301.304 C 134.620 301.304,135.568 302.251,135.568 302.767 C 135.568 302.986,135.694 303.166,135.847 303.166 C 136.323 303.167,138.175 304.905,138.175 305.351 C 138.175 305.583,138.355 305.773,138.574 305.773 C 139.090 305.773,140.037 306.720,140.037 307.236 C 140.037 307.455,140.163 307.635,140.317 307.635 C 140.793 307.636,142.644 309.374,142.644 309.820 C 142.644 310.052,142.824 310.242,143.043 310.242 C 143.529 310.242,144.507 311.178,144.507 311.642 C 144.507 311.827,144.907 312.193,145.397 312.455 C 145.886 312.717,146.501 313.332,146.763 313.821 C 147.025 314.311,147.391 314.711,147.576 314.711 C 148.011 314.711,148.976 315.677,148.976 316.112 C 148.976 316.296,149.376 316.662,149.866 316.924 C 150.355 317.186,150.970 317.801,151.232 318.291 C 151.494 318.780,151.860 319.181,152.045 319.181 C 152.480 319.181,153.445 320.146,153.445 320.581 C 153.445 320.766,153.846 321.131,154.335 321.393 C 154.825 321.655,155.440 322.270,155.702 322.760 C 155.964 323.249,156.329 323.650,156.514 323.650 C 156.979 323.650,157.914 324.628,157.914 325.113 C 157.914 325.333,158.094 325.512,158.313 325.512 C 158.747 325.512,159.777 326.429,159.777 326.816 C 159.777 327.126,160.769 328.119,161.080 328.119 C 161.467 328.119,162.384 329.148,162.384 329.582 C 162.384 329.802,162.563 329.981,162.783 329.981 C 163.217 329.981,164.246 330.898,164.246 331.285 C 164.246 331.596,165.239 332.588,165.549 332.588 C 165.936 332.588,166.853 333.618,166.853 334.052 C 166.853 334.271,167.032 334.451,167.252 334.451 C 167.686 334.451,168.715 335.367,168.715 335.754 C 168.715 336.065,169.708 337.058,170.019 337.058 C 170.405 337.058,171.322 338.087,171.322 338.521 C 171.322 338.740,171.502 338.920,171.721 338.920 C 172.155 338.920,173.184 339.837,173.184 340.223 C 173.184 340.534,174.177 341.527,174.488 341.527 C 174.875 341.527,175.791 342.556,175.791 342.990 C 175.791 343.210,175.971 343.389,176.190 343.389 C 176.625 343.389,177.654 344.306,177.654 344.693 C 177.654 345.003,178.646 345.996,178.957 345.996 C 179.344 345.996,180.261 347.025,180.261 347.459 C 180.261 347.679,180.440 347.858,180.660 347.858 C 181.094 347.858,182.123 348.775,182.123 349.162 C 182.123 349.473,183.116 350.466,183.426 350.466 C 183.813 350.466,184.730 351.495,184.730 351.929 C 184.730 352.148,184.910 352.328,185.129 352.328 C 185.563 352.328,186.592 353.245,186.592 353.631 C 186.592 353.942,187.585 354.935,187.896 354.935 C 188.282 354.935,189.199 355.964,189.199 356.398 C 189.199 356.617,189.379 356.797,189.598 356.797 C 190.032 356.797,191.061 357.714,191.061 358.101 C 191.061 358.459,192.077 359.404,192.462 359.404 C 192.647 359.404,193.022 359.823,193.296 360.335 C 193.570 360.847,193.946 361.266,194.131 361.266 C 194.516 361.266,195.531 362.211,195.531 362.570 C 195.531 362.928,196.546 363.873,196.931 363.873 C 197.116 363.873,197.491 364.292,197.765 364.804 C 198.187 365.593,198.529 365.736,200.000 365.736 C 201.471 365.736,201.813 365.593,202.235 364.804 C 202.509 364.292,202.884 363.873,203.069 363.873 C 203.454 363.873,204.469 362.928,204.469 362.570 C 204.469 362.211,205.484 361.266,205.869 361.266 C 206.054 361.266,206.430 360.847,206.704 360.335 C 206.978 359.823,207.353 359.404,207.538 359.404 C 207.923 359.404,208.939 358.459,208.939 358.101 C 208.939 357.714,209.968 356.797,210.402 356.797 C 210.621 356.797,210.801 356.617,210.801 356.398 C 210.801 355.964,211.718 354.935,212.104 354.935 C 212.415 354.935,213.408 353.942,213.408 353.631 C 213.408 353.245,214.437 352.328,214.871 352.328 C 215.090 352.328,215.270 352.148,215.270 351.929 C 215.270 351.495,216.187 350.466,216.574 350.466 C 216.884 350.466,217.877 349.473,217.877 349.162 C 217.877 348.775,218.906 347.858,219.340 347.858 C 219.560 347.858,219.739 347.679,219.739 347.459 C 219.739 347.025,220.656 345.996,221.043 345.996 C 221.354 345.996,222.346 345.003,222.346 344.693 C 222.346 344.306,223.375 343.389,223.810 343.389 C 224.029 343.389,224.209 343.210,224.209 342.990 C 224.209 342.475,225.156 341.527,225.672 341.527 C 225.891 341.527,226.071 341.266,226.071 340.946 C 226.071 340.627,226.238 340.469,226.443 340.596 C 226.648 340.723,226.816 340.637,226.816 340.405 C 226.816 339.871,227.753 338.920,228.279 338.920 C 228.498 338.920,228.678 338.740,228.678 338.521 C 228.678 338.087,229.595 337.058,229.981 337.058 C 230.292 337.058,231.285 336.065,231.285 335.754 C 231.285 335.367,232.314 334.451,232.748 334.451 C 232.968 334.451,233.147 334.271,233.147 334.052 C 233.147 333.618,234.064 332.588,234.451 332.588 C 234.761 332.588,235.754 331.596,235.754 331.285 C 235.754 330.898,236.783 329.981,237.217 329.981 C 237.437 329.981,237.616 329.802,237.616 329.582 C 237.616 329.148,238.533 328.119,238.920 328.119 C 239.231 328.119,240.223 327.126,240.223 326.816 C 240.223 326.429,241.253 325.512,241.687 325.512 C 241.906 325.512,242.086 325.333,242.086 325.113 C 242.086 324.628,243.021 323.650,243.486 323.650 C 243.671 323.650,244.036 323.249,244.298 322.760 C 244.560 322.270,245.175 321.655,245.665 321.393 C 246.154 321.131,246.555 320.766,246.555 320.581 C 246.555 320.146,247.520 319.181,247.955 319.181 C 248.140 319.181,248.506 318.780,248.768 318.291 C 249.030 317.801,249.645 317.186,250.134 316.924 C 250.624 316.662,251.024 316.296,251.024 316.112 C 251.024 315.677,251.989 314.711,252.424 314.711 C 252.609 314.711,252.975 314.311,253.237 313.821 C 253.499 313.332,254.114 312.717,254.603 312.455 C 255.093 312.193,255.493 311.827,255.493 311.642 C 255.493 311.178,256.471 310.242,256.957 310.242 C 257.176 310.242,257.356 310.052,257.356 309.820 C 257.356 309.374,259.207 307.636,259.683 307.635 C 259.837 307.635,259.963 307.455,259.963 307.236 C 259.963 306.720,260.910 305.773,261.426 305.773 C 261.645 305.773,261.825 305.598,261.825 305.383 C 261.825 305.169,262.236 304.583,262.739 304.080 C 263.242 303.577,263.829 303.166,264.043 303.166 C 264.257 303.166,264.432 302.986,264.432 302.767 C 264.432 302.251,265.380 301.304,265.895 301.304 C 266.115 301.304,266.294 301.114,266.294 300.881 C 266.294 300.435,268.146 298.698,268.622 298.697 C 268.776 298.697,268.901 298.517,268.901 298.297 C 268.901 297.782,269.849 296.834,270.364 296.834 C 270.584 296.834,270.764 296.655,270.764 296.435 C 270.764 295.920,271.711 294.972,272.227 294.972 C 272.446 294.972,272.626 294.711,272.626 294.391 C 272.626 294.072,272.793 293.914,272.998 294.041 C 273.203 294.168,273.371 294.082,273.371 293.850 C 273.371 293.317,274.308 292.365,274.834 292.365 C 275.053 292.365,275.233 292.185,275.233 291.966 C 275.233 291.532,276.150 290.503,276.536 290.503 C 276.847 290.503,277.840 289.510,277.840 289.199 C 277.840 288.813,278.869 287.896,279.303 287.896 C 279.522 287.896,279.702 287.716,279.702 287.497 C 279.702 287.063,280.619 286.034,281.006 286.034 C 281.137 286.034,281.484 285.794,281.777 285.501 C 282.070 285.209,282.309 284.862,282.309 284.730 C 282.309 284.343,283.338 283.426,283.772 283.426 C 283.992 283.426,284.171 283.247,284.171 283.027 C 284.171 282.484,285.130 281.564,285.697 281.564 C 285.950 281.564,286.063 281.469,285.946 281.353 C 285.681 281.088,287.734 278.957,288.256 278.957 C 288.467 278.957,288.641 278.778,288.641 278.558 C 288.641 278.061,289.581 277.095,290.064 277.095 C 290.261 277.095,290.523 276.835,290.645 276.517 C 290.772 276.186,290.710 276.036,290.499 276.167 C 290.296 276.292,290.130 276.222,290.130 276.011 C 290.130 275.686,201.942 187.241,200.339 185.957 C 199.868 185.580,192.648 192.646,155.049 230.278 M184.544 233.337 C 189.189 234.719,192.899 236.884,198.066 241.228 C 200.940 243.645,200.706 243.648,203.320 241.155 C 204.501 240.028,205.633 239.106,205.835 239.106 C 206.036 239.106,206.595 238.687,207.076 238.175 C 207.557 237.663,208.098 237.244,208.276 237.244 C 208.455 237.244,209.519 236.657,210.640 235.940 C 211.760 235.223,212.844 234.637,213.048 234.637 C 213.251 234.637,213.709 234.475,214.065 234.276 C 219.793 231.081,226.499 233.013,228.525 238.443 C 228.852 239.320,229.263 240.372,229.438 240.782 C 230.434 243.115,230.340 249.863,229.200 257.935 C 228.951 259.698,229.310 260.126,231.486 260.655 C 233.510 261.148,238.317 263.324,240.893 264.914 C 253.236 272.533,251.590 281.752,236.587 289.022 C 234.484 290.041,232.646 290.875,232.502 290.875 C 230.833 290.875,228.997 292.196,229.179 293.266 C 229.286 293.897,229.630 295.922,229.944 297.765 C 233.550 318.971,221.067 325.430,204.068 311.155 L 200.873 308.472 198.853 310.145 C 197.743 311.065,196.750 311.925,196.648 312.056 C 195.665 313.314,188.993 317.029,185.661 318.172 C 174.014 322.171,168.214 311.422,172.439 293.669 C 172.712 292.521,172.305 292.105,170.298 291.477 C 169.120 291.109,166.957 290.236,165.492 289.538 C 164.026 288.840,162.739 288.268,162.632 288.268 C 161.162 288.268,154.524 282.272,153.166 279.718 C 150.034 273.828,155.097 266.529,165.177 262.403 C 166.611 261.816,167.943 261.195,168.138 261.022 C 168.332 260.849,168.871 260.708,169.336 260.708 C 170.960 260.708,172.884 259.514,172.614 258.673 C 172.481 258.256,172.058 256.238,171.674 254.190 C 168.939 239.587,174.620 230.384,184.544 233.337 M178.957 237.015 C 174.952 238.761,173.691 247.447,176.057 256.981 C 176.470 258.646,176.800 258.692,181.693 257.756 C 183.913 257.331,186.248 256.983,186.882 256.983 C 188.868 256.983,189.712 256.404,192.002 253.468 C 193.226 251.899,195.021 249.743,195.991 248.678 C 198.134 246.323,198.128 246.465,196.182 244.636 C 190.582 239.369,182.133 235.631,178.957 237.015 M217.505 237.032 C 213.671 238.446,208.955 241.309,205.424 244.366 C 203.401 246.117,203.430 246.245,206.747 250.189 C 208.425 252.185,210.149 254.359,210.579 255.020 C 211.536 256.495,211.896 256.666,214.711 256.986 C 215.940 257.126,218.662 257.553,220.760 257.935 C 225.201 258.742,225.213 258.737,225.770 255.636 C 228.134 242.474,224.560 234.430,217.505 237.032 M200.165 249.819 C 199.207 250.485,195.503 255.223,195.634 255.616 C 195.853 256.273,205.773 256.227,205.773 255.570 C 205.773 254.907,201.501 249.533,200.980 249.540 C 200.748 249.543,200.381 249.669,200.165 249.819 M191.379 260.987 C 190.658 261.854,188.827 264.733,188.827 265.001 C 188.827 265.117,188.223 266.157,187.484 267.312 C 183.934 272.861,182.702 275.828,183.395 277.154 C 183.945 278.204,186.052 281.992,187.092 283.799 C 187.504 284.516,188.307 285.940,188.875 286.965 C 189.444 287.989,190.401 289.413,191.003 290.130 L 192.097 291.434 200.239 291.434 C 210.412 291.434,209.812 291.625,212.104 287.648 C 213.128 285.870,214.365 283.733,214.853 282.897 C 215.340 282.062,216.408 280.145,217.227 278.638 L 218.714 275.898 217.915 274.355 C 215.192 269.097,210.123 260.813,209.479 260.566 C 207.878 259.951,191.932 260.322,191.379 260.987 M182.495 261.488 C 177.924 262.361,177.340 262.847,178.326 264.953 C 178.527 265.383,178.985 266.574,179.343 267.598 C 180.557 271.076,180.915 271.137,182.480 268.129 C 183.128 266.884,184.242 264.953,184.955 263.837 C 186.742 261.044,186.422 260.738,182.495 261.488 M215.274 261.503 C 215.276 261.782,215.911 263.017,216.685 264.246 C 217.460 265.475,218.403 267.140,218.781 267.947 C 220.146 270.859,220.641 271.051,221.520 269.007 C 224.078 263.062,224.183 262.197,222.349 262.197 C 221.760 262.197,220.879 262.046,220.391 261.860 C 218.613 261.184,215.270 260.951,215.274 261.503 M170.577 264.409 C 166.487 265.757,160.522 268.940,159.181 270.489 C 154.052 276.416,156.062 280.793,166.108 285.571 C 173.546 289.109,173.648 289.093,175.096 284.171 C 175.367 283.250,175.969 281.700,176.435 280.728 C 176.900 279.756,177.281 278.718,177.281 278.422 C 177.281 278.126,177.430 277.792,177.612 277.679 C 178.267 277.275,178.413 275.561,177.894 274.380 C 177.605 273.723,176.993 272.348,176.535 271.325 C 176.077 270.302,175.396 268.506,175.021 267.332 C 173.738 263.315,173.791 263.350,170.577 264.409 M227.462 263.966 C 227.384 264.120,227.104 265.000,226.840 265.922 C 226.576 266.844,225.611 269.394,224.697 271.590 C 223.519 274.418,223.112 275.830,223.301 276.432 C 223.551 277.230,225.048 280.703,225.673 281.937 C 225.828 282.244,226.326 283.696,226.779 285.164 C 227.579 287.755,228.321 288.618,229.191 287.969 C 229.421 287.798,230.363 287.426,231.285 287.142 C 237.791 285.143,245.438 279.011,245.438 275.791 C 245.438 274.782,243.609 272.019,241.920 270.475 C 238.629 267.466,228.095 262.725,227.462 263.966 M204.097 268.037 C 209.767 270.348,210.964 278.162,206.257 282.131 C 203.334 284.596,198.908 284.908,196.047 282.852 C 187.562 276.752,194.436 264.100,204.097 268.037 M180.567 281.852 C 180.095 282.416,179.754 283.156,178.385 286.592 C 177.217 289.523,177.709 289.851,184.637 290.764 C 186.789 291.047,186.723 290.596,183.985 286.250 C 182.756 284.299,181.750 282.457,181.750 282.156 C 181.750 281.298,181.158 281.146,180.567 281.852 M218.630 284.078 C 217.747 285.666,216.590 287.749,216.059 288.707 C 214.851 290.888,215.060 291.090,217.961 290.531 C 224.371 289.296,224.313 289.354,222.880 285.577 C 220.896 280.349,220.736 280.293,218.630 284.078 M220.670 293.865 C 218.827 294.244,216.866 294.565,216.313 294.577 C 213.290 294.645,211.671 295.346,210.401 297.134 C 209.719 298.096,208.021 300.255,206.628 301.933 C 205.236 303.611,204.097 305.212,204.097 305.491 C 204.097 307.133,211.637 312.393,217.243 314.662 C 220.999 316.182,224.555 314.340,225.855 310.200 C 226.821 307.121,226.370 294.987,225.236 293.575 C 224.783 293.011,224.834 293.008,220.670 293.865 M176.303 294.134 C 176.188 294.493,175.952 295.205,175.779 295.717 C 174.564 299.310,174.606 310.068,175.838 310.830 C 176.017 310.940,176.170 311.314,176.177 311.661 C 176.232 314.218,180.439 315.834,184.023 314.674 C 188.811 313.125,197.765 307.181,197.765 305.552 C 197.765 305.279,195.604 302.535,194.126 300.931 C 193.654 300.419,192.478 298.963,191.513 297.695 L 189.758 295.389 187.151 294.997 C 185.717 294.781,183.105 294.352,181.346 294.043 C 177.252 293.325,176.559 293.338,176.303 294.134 M195.412 295.587 C 194.915 296.084,200.030 302.421,200.929 302.421 C 201.678 302.421,206.440 296.193,206.105 295.651 C 205.882 295.291,195.769 295.230,195.412 295.587 " stroke="none" fill="#d1f3fb" fill-rule="evenodd"></path><path id="path2" d="M289.013 95.811 C 289.013 96.067,269.069 116.220,244.693 140.596 C 220.317 164.971,200.373 185.083,200.374 185.288 C 200.374 185.493,220.570 205.856,245.253 230.539 C 269.935 255.222,290.130 275.543,290.130 275.697 C 290.130 276.260,291.097 275.958,291.620 275.233 C 291.915 274.823,292.371 274.488,292.633 274.488 C 292.895 274.488,293.110 274.308,293.110 274.089 C 293.110 273.573,294.057 272.626,294.573 272.626 C 294.792 272.626,294.972 272.500,294.973 272.346 C 294.973 271.870,296.711 270.019,297.157 270.019 C 297.389 270.019,297.579 269.839,297.579 269.620 C 297.579 269.104,298.527 268.156,299.042 268.156 C 299.262 268.156,299.442 268.031,299.442 267.877 C 299.443 267.401,301.180 265.549,301.626 265.549 C 301.858 265.549,302.048 265.370,302.048 265.150 C 302.048 264.635,302.996 263.687,303.512 263.687 C 303.731 263.687,303.911 263.512,303.911 263.298 C 303.911 262.792,305.623 261.080,306.128 261.080 C 306.342 261.080,306.518 260.901,306.518 260.681 C 306.518 260.165,307.465 259.218,307.981 259.218 C 308.200 259.218,308.380 259.043,308.380 258.829 C 308.380 258.323,310.092 256.611,310.598 256.611 C 310.812 256.611,310.987 256.431,310.987 256.212 C 310.987 255.696,311.934 254.749,312.450 254.749 C 312.670 254.749,312.849 254.559,312.849 254.326 C 312.849 253.880,314.701 252.143,315.177 252.142 C 315.331 252.142,315.456 251.962,315.456 251.742 C 315.456 251.227,316.404 250.279,316.919 250.279 C 317.139 250.279,317.318 250.089,317.318 249.857 C 317.318 249.411,319.170 247.673,319.646 247.673 C 319.800 247.672,319.926 247.493,319.926 247.273 C 319.926 246.758,320.873 245.810,321.389 245.810 C 321.608 245.810,321.788 245.635,321.788 245.421 C 321.788 244.915,323.500 243.203,324.005 243.203 C 324.220 243.203,324.395 243.023,324.395 242.804 C 324.395 242.288,325.342 241.341,325.858 241.341 C 326.077 241.341,326.257 241.166,326.257 240.951 C 326.257 240.446,327.969 238.734,328.475 238.734 C 328.689 238.734,328.864 238.554,328.864 238.335 C 328.864 237.819,329.812 236.872,330.327 236.872 C 330.547 236.872,330.726 236.696,330.726 236.482 C 330.726 235.977,332.438 234.264,332.944 234.264 C 333.158 234.264,333.333 234.085,333.333 233.865 C 333.333 233.350,334.281 232.402,334.796 232.402 C 335.016 232.402,335.196 232.223,335.196 232.003 C 335.196 231.488,336.143 230.540,336.659 230.540 C 336.878 230.540,337.058 230.365,337.058 230.151 C 337.058 229.645,338.770 227.933,339.275 227.933 C 339.490 227.933,339.665 227.753,339.665 227.534 C 339.665 227.018,340.612 226.071,341.128 226.071 C 341.347 226.071,341.527 225.945,341.527 225.791 C 341.528 225.315,343.266 223.464,343.712 223.464 C 343.944 223.464,344.134 223.284,344.134 223.065 C 344.134 222.549,345.082 221.601,345.597 221.601 C 345.817 221.601,345.996 221.476,345.997 221.322 C 345.998 220.846,347.735 218.994,348.181 218.994 C 348.413 218.994,348.603 218.815,348.603 218.595 C 348.603 218.080,349.551 217.132,350.067 217.132 C 350.286 217.132,350.466 216.957,350.466 216.743 C 350.466 216.529,350.877 215.942,351.380 215.439 C 351.883 214.937,352.469 214.525,352.683 214.525 C 352.897 214.525,353.073 214.346,353.073 214.126 C 353.073 213.610,354.020 212.663,354.536 212.663 C 354.755 212.663,354.935 212.488,354.935 212.274 C 354.935 212.059,355.346 211.473,355.849 210.970 C 356.352 210.467,356.938 210.056,357.153 210.056 C 357.367 210.056,357.542 209.876,357.542 209.657 C 357.542 209.141,358.489 208.194,359.005 208.194 C 359.225 208.194,359.404 208.018,359.404 207.804 C 359.404 207.590,359.815 207.004,360.318 206.501 C 360.821 205.998,361.408 205.587,361.622 205.587 C 361.836 205.587,362.011 205.407,362.011 205.188 C 362.011 204.672,362.959 203.724,363.474 203.724 C 363.694 203.724,363.873 203.549,363.873 203.335 C 363.873 203.121,364.285 202.534,364.788 202.031 C 365.290 201.529,365.877 201.117,366.091 201.117 C 366.305 201.117,366.480 200.938,366.480 200.718 C 366.480 200.203,367.428 199.255,367.944 199.255 C 368.163 199.255,368.343 199.080,368.343 198.866 C 368.343 198.652,368.754 198.065,369.257 197.562 C 369.760 197.059,370.346 196.648,370.560 196.648 C 370.775 196.648,370.950 196.468,370.950 196.249 C 370.950 196.030,371.189 195.611,371.482 195.318 C 371.774 195.025,372.193 194.786,372.413 194.786 C 372.632 194.786,372.812 194.611,372.812 194.396 C 372.812 194.182,373.223 193.596,373.726 193.093 C 374.229 192.590,374.815 192.179,375.030 192.179 C 375.244 192.179,375.419 191.999,375.419 191.780 C 375.419 191.560,375.658 191.141,375.951 190.849 C 376.244 190.556,376.663 190.317,376.882 190.317 C 377.102 190.317,377.281 190.126,377.281 189.893 C 377.281 189.660,377.868 188.968,378.585 188.356 C 380.289 186.900,380.483 184.429,378.957 183.613 C 378.445 183.339,378.026 182.963,378.026 182.778 C 378.026 182.314,377.048 181.378,376.563 181.378 C 376.343 181.378,376.164 181.188,376.164 180.956 C 376.164 180.510,374.312 178.772,373.836 178.771 C 373.682 178.771,373.557 178.591,373.557 178.372 C 373.557 177.887,372.621 176.909,372.157 176.909 C 371.972 176.909,371.596 176.490,371.322 175.978 C 371.048 175.466,370.673 175.047,370.488 175.047 C 370.103 175.047,369.088 174.102,369.088 173.743 C 369.088 173.384,368.072 172.439,367.687 172.439 C 367.502 172.439,367.127 172.020,366.853 171.508 C 366.579 170.996,366.203 170.577,366.018 170.577 C 365.633 170.577,364.618 169.632,364.618 169.274 C 364.618 168.915,363.603 167.970,363.218 167.970 C 363.033 167.970,362.658 167.551,362.384 167.039 C 362.110 166.527,361.734 166.108,361.549 166.108 C 361.114 166.108,360.149 165.143,360.149 164.708 C 360.149 164.523,359.730 164.147,359.218 163.873 C 358.706 163.599,358.287 163.224,358.287 163.039 C 358.287 162.654,357.342 161.639,356.983 161.639 C 356.625 161.639,355.680 160.624,355.680 160.239 C 355.680 160.054,355.261 159.678,354.749 159.404 C 354.236 159.130,353.818 158.755,353.818 158.570 C 353.818 158.135,352.852 157.169,352.417 157.169 C 352.232 157.169,351.867 156.769,351.605 156.279 C 351.343 155.790,350.728 155.175,350.238 154.913 C 349.749 154.651,349.348 154.285,349.348 154.100 C 349.348 153.665,348.383 152.700,347.948 152.700 C 347.763 152.700,347.398 152.300,347.136 151.810 C 346.874 151.321,346.259 150.706,345.769 150.444 C 345.280 150.182,344.879 149.816,344.879 149.631 C 344.879 149.167,343.901 148.231,343.416 148.231 C 343.196 148.231,343.017 147.970,343.017 147.650 C 343.017 147.331,342.849 147.173,342.644 147.300 C 342.439 147.426,342.272 147.341,342.272 147.109 C 342.272 146.575,341.334 145.624,340.809 145.624 C 340.589 145.624,340.410 145.444,340.410 145.225 C 340.410 145.005,340.170 144.586,339.878 144.294 C 339.585 144.001,339.166 143.762,338.947 143.762 C 338.727 143.762,338.547 143.586,338.547 143.372 C 338.547 142.867,336.835 141.155,336.330 141.155 C 336.116 141.155,335.940 140.975,335.940 140.756 C 335.940 140.536,335.701 140.117,335.408 139.824 C 335.116 139.532,334.697 139.292,334.477 139.292 C 334.258 139.292,334.078 139.117,334.078 138.903 C 334.078 138.397,332.366 136.685,331.861 136.685 C 331.646 136.685,331.471 136.506,331.471 136.286 C 331.471 136.067,331.232 135.648,330.939 135.355 C 330.646 135.063,330.227 134.823,330.008 134.823 C 329.789 134.823,329.609 134.648,329.609 134.434 C 329.609 133.928,327.897 132.216,327.391 132.216 C 327.177 132.216,327.002 132.036,327.002 131.817 C 327.002 131.332,326.066 130.354,325.602 130.354 C 325.417 130.354,325.041 129.935,324.767 129.423 C 324.493 128.911,324.036 128.492,323.751 128.492 C 323.466 128.492,323.337 128.324,323.464 128.119 C 323.590 127.914,323.433 127.747,323.113 127.747 C 322.794 127.747,322.533 127.567,322.533 127.348 C 322.533 127.128,322.293 126.709,322.001 126.417 C 321.708 126.124,321.289 125.885,321.069 125.885 C 320.850 125.885,320.670 125.759,320.670 125.605 C 320.669 125.129,318.931 123.277,318.486 123.277 C 318.253 123.277,318.063 123.098,318.063 122.878 C 318.063 122.659,317.824 122.240,317.531 121.947 C 317.239 121.655,316.820 121.415,316.600 121.415 C 316.381 121.415,316.201 121.225,316.201 120.993 C 316.201 120.547,314.349 118.809,313.873 118.809 C 313.720 118.808,313.594 118.629,313.594 118.409 C 313.594 118.190,313.355 117.771,313.062 117.478 C 312.769 117.185,312.350 116.946,312.131 116.946 C 311.911 116.946,311.732 116.756,311.732 116.524 C 311.732 116.078,309.880 114.340,309.404 114.339 C 309.250 114.339,309.125 114.159,309.125 113.940 C 309.125 113.720,308.885 113.301,308.593 113.009 C 308.300 112.716,307.881 112.477,307.662 112.477 C 307.442 112.477,307.263 112.297,307.263 112.078 C 307.263 111.858,307.023 111.439,306.731 111.147 C 306.438 110.854,306.019 110.615,305.799 110.615 C 305.580 110.615,305.400 110.489,305.400 110.335 C 305.399 109.859,303.661 108.007,303.216 108.007 C 302.983 108.007,302.793 107.828,302.793 107.608 C 302.793 107.093,301.846 106.145,301.330 106.145 C 301.111 106.145,300.931 106.020,300.931 105.866 C 300.930 105.390,299.192 103.538,298.746 103.538 C 298.514 103.538,298.324 103.359,298.324 103.139 C 298.324 102.623,297.377 101.676,296.861 101.676 C 296.641 101.676,296.462 101.415,296.462 101.095 C 296.462 100.776,296.294 100.618,296.089 100.745 C 295.885 100.871,295.717 100.786,295.717 100.554 C 295.717 100.020,294.779 99.069,294.254 99.069 C 294.034 99.069,293.855 98.889,293.855 98.670 C 293.855 98.450,293.615 98.031,293.323 97.739 C 293.030 97.446,292.611 97.207,292.392 97.207 C 292.172 97.207,291.993 97.027,291.993 96.808 C 291.993 96.097,290.953 95.345,289.971 95.345 C 289.444 95.345,289.013 95.554,289.013 95.811 M275.680 164.275 C 283.582 165.881,287.975 170.237,290.490 178.957 C 290.726 179.777,290.867 181.955,290.804 183.799 L 290.689 187.151 275.461 187.248 L 260.234 187.345 260.472 189.376 C 260.870 192.757,262.176 195.545,264.410 197.779 C 270.107 203.475,279.725 201.666,282.990 194.284 C 283.661 192.769,283.901 192.533,284.561 192.743 C 284.989 192.879,286.458 193.101,287.824 193.236 C 290.898 193.541,291.036 193.910,289.353 197.335 C 286.132 203.888,280.135 207.000,271.450 206.624 C 259.828 206.121,253.259 198.432,253.259 185.332 C 253.259 181.807,253.394 180.925,254.577 176.721 C 256.956 168.267,266.790 162.467,275.680 164.275 M304.505 165.642 C 304.775 166.001,306.888 169.101,309.202 172.531 C 311.515 175.961,313.492 178.765,313.594 178.763 C 313.696 178.761,315.624 176.133,317.877 172.923 C 324.015 164.178,323.021 164.991,327.582 164.991 C 332.322 164.991,332.601 163.954,324.899 174.952 C 321.564 179.714,318.673 183.914,318.475 184.285 C 318.126 184.937,319.013 186.389,324.781 194.600 C 330.088 202.155,332.216 205.305,332.216 205.602 C 332.216 205.807,330.561 205.959,328.331 205.959 L 324.446 205.959 323.600 204.749 C 323.135 204.083,322.661 203.454,322.547 203.352 C 322.159 203.003,315.078 192.224,314.854 191.642 C 314.393 190.439,313.626 191.223,309.501 197.114 C 307.171 200.442,304.778 203.794,304.184 204.562 L 303.103 205.959 299.224 205.959 C 296.663 205.959,295.345 205.821,295.345 205.551 C 295.345 205.327,298.082 201.263,301.428 196.520 C 304.774 191.777,307.961 187.181,308.512 186.308 L 309.513 184.720 305.654 179.231 C 300.415 171.779,297.041 166.836,296.507 165.829 L 296.063 164.991 300.039 164.991 C 303.390 164.991,304.092 165.093,304.505 165.642 M269.460 170.000 C 264.350 171.517,260.734 175.721,260.713 180.168 L 260.708 181.378 272.067 181.378 L 283.426 181.378 283.426 180.092 C 283.426 177.921,281.927 174.664,280.074 172.812 C 277.276 170.013,273.121 168.912,269.460 170.000 " stroke="none" fill="#fbcb73" fill-rule="evenodd"></path><path id="path3" d="M103.631 100.038 C 101.122 102.585,99.069 104.834,99.069 105.035 C 99.069 105.236,98.893 105.400,98.679 105.400 C 98.464 105.400,97.459 106.230,96.444 107.245 C 95.430 108.259,94.600 109.265,94.600 109.479 C 94.600 109.694,94.424 109.870,94.209 109.870 C 93.701 109.870,90.130 113.440,90.130 113.949 C 90.130 114.163,89.955 114.339,89.740 114.339 C 89.232 114.339,85.661 117.910,85.661 118.418 C 85.661 118.633,85.486 118.808,85.271 118.808 C 84.763 118.808,81.192 122.379,81.192 122.887 C 81.192 123.102,81.024 123.277,80.818 123.277 C 80.330 123.277,52.514 151.093,52.514 151.582 C 52.514 151.787,52.338 151.955,52.124 151.955 C 51.615 151.955,48.045 155.526,48.045 156.034 C 48.045 156.249,47.869 156.425,47.655 156.425 C 47.146 156.425,43.575 159.995,43.575 160.504 C 43.575 160.718,43.400 160.894,43.185 160.894 C 42.677 160.894,39.106 164.465,39.106 164.973 C 39.106 165.188,38.931 165.363,38.716 165.363 C 38.208 165.363,34.637 168.934,34.637 169.442 C 34.637 169.657,34.461 169.832,34.247 169.832 C 33.738 169.832,30.168 173.403,30.168 173.912 C 30.168 174.126,29.992 174.302,29.777 174.302 C 29.269 174.302,25.698 177.872,25.698 178.381 C 25.698 178.595,25.523 178.771,25.308 178.771 C 24.800 178.771,21.229 182.342,21.229 182.850 C 21.229 183.065,21.049 183.240,20.830 183.240 C 20.013 183.240,19.367 184.348,19.379 185.728 C 19.390 187.056,20.039 188.454,20.645 188.454 C 20.975 188.454,21.974 189.434,21.974 189.758 C 21.974 190.116,22.989 191.061,23.374 191.061 C 23.559 191.061,23.934 191.480,24.209 191.993 C 24.483 192.505,24.858 192.924,25.043 192.924 C 25.428 192.924,26.443 193.869,26.443 194.227 C 26.443 194.586,27.458 195.531,27.843 195.531 C 28.028 195.531,28.404 195.950,28.678 196.462 C 28.952 196.974,29.327 197.393,29.512 197.393 C 29.897 197.393,30.912 198.338,30.912 198.696 C 30.912 198.968,31.888 200.000,32.145 200.000 C 32.395 200.000,35.382 202.945,35.382 203.192 C 35.382 203.530,36.411 204.469,36.782 204.469 C 36.967 204.469,37.342 204.888,37.616 205.400 C 37.890 205.912,38.254 206.331,38.425 206.331 C 38.833 206.331,41.713 209.306,41.713 209.728 C 41.713 209.908,41.858 210.056,42.035 210.056 C 42.377 210.056,46.182 213.688,46.182 214.014 C 46.182 214.275,47.194 215.270,47.460 215.270 C 47.707 215.270,50.652 218.257,50.652 218.507 C 50.652 218.764,51.684 219.739,51.955 219.739 C 52.314 219.739,53.259 220.754,53.259 221.140 C 53.259 221.324,53.678 221.700,54.190 221.974 C 54.702 222.248,55.121 222.623,55.121 222.808 C 55.121 223.193,56.066 224.209,56.425 224.209 C 56.783 224.209,57.728 225.224,57.728 225.609 C 57.728 225.794,58.147 226.169,58.659 226.443 C 59.171 226.717,59.590 227.093,59.590 227.278 C 59.590 227.713,60.555 228.678,60.991 228.678 C 61.175 228.678,61.541 229.078,61.803 229.568 C 62.065 230.058,62.680 230.672,63.169 230.934 C 63.659 231.196,64.060 231.562,64.060 231.747 C 64.060 232.182,65.025 233.147,65.460 233.147 C 65.645 233.147,66.010 233.548,66.272 234.037 C 66.534 234.527,67.149 235.142,67.639 235.404 C 68.128 235.666,68.529 236.031,68.529 236.216 C 68.529 236.651,69.494 237.616,69.929 237.616 C 70.114 237.616,70.480 238.017,70.742 238.506 C 71.004 238.996,71.618 239.611,72.108 239.873 C 72.598 240.135,72.998 240.501,72.998 240.685 C 72.998 241.120,73.963 242.086,74.398 242.086 C 74.583 242.086,74.959 242.505,75.233 243.017 C 75.507 243.529,75.893 243.948,76.090 243.948 C 76.490 243.948,78.211 245.837,78.212 246.276 C 78.212 246.429,78.435 246.555,78.708 246.555 C 78.981 246.555,79.428 246.974,79.702 247.486 C 79.976 247.998,80.352 248.417,80.536 248.417 C 80.922 248.417,81.937 249.362,81.937 249.721 C 81.937 250.079,82.952 251.024,83.337 251.024 C 83.522 251.024,83.897 251.443,84.171 251.955 C 84.445 252.467,84.831 252.886,85.029 252.886 C 85.428 252.886,87.150 254.775,87.150 255.214 C 87.151 255.368,87.402 255.493,87.709 255.493 C 88.017 255.493,88.268 255.673,88.268 255.893 C 88.268 256.327,89.185 257.356,89.572 257.356 C 89.882 257.356,90.875 258.348,90.875 258.659 C 90.875 259.046,91.904 259.963,92.338 259.963 C 92.558 259.963,92.737 260.142,92.737 260.362 C 92.737 260.796,93.654 261.825,94.041 261.825 C 94.352 261.825,95.345 262.818,95.345 263.128 C 95.345 263.515,96.374 264.432,96.808 264.432 C 97.027 264.432,97.207 264.612,97.207 264.831 C 97.207 265.265,98.124 266.294,98.510 266.294 C 98.821 266.294,99.814 267.287,99.814 267.598 C 99.814 267.984,100.843 268.901,101.277 268.901 C 101.496 268.901,101.676 269.081,101.676 269.300 C 101.676 269.734,102.593 270.764,102.980 270.764 C 103.290 270.764,104.283 271.756,104.283 272.067 C 104.283 272.454,105.312 273.371,105.746 273.371 C 105.966 273.371,106.145 273.550,106.145 273.770 C 106.145 274.266,107.085 275.233,107.569 275.233 C 107.766 275.233,108.024 275.484,108.142 275.791 C 108.400 276.463,109.870 276.545,109.870 275.888 C 109.870 275.634,129.999 255.294,154.603 230.688 C 194.052 191.233,199.288 185.866,198.934 185.246 C 198.160 183.891,109.305 95.340,108.752 95.373 C 108.445 95.392,106.141 97.491,103.631 100.038 M113.996 140.523 C 114.902 140.996,116.281 141.753,117.061 142.205 C 118.691 143.151,123.081 145.662,125.456 147.007 C 126.347 147.511,127.856 148.400,128.808 148.982 C 129.761 149.564,134.562 152.341,139.479 155.154 C 144.395 157.966,148.816 160.618,149.303 161.046 C 151.219 162.730,151.210 162.620,151.210 186.040 C 151.210 211.819,151.575 209.852,146.247 212.797 C 142.153 215.059,141.179 215.618,139.709 216.545 C 138.874 217.073,138.104 217.505,137.998 217.505 C 137.893 217.505,135.439 218.929,132.545 220.670 C 129.652 222.412,127.234 223.836,127.173 223.836 C 127.112 223.836,125.359 224.842,123.277 226.071 C 121.196 227.300,119.436 228.305,119.367 228.305 C 119.298 228.305,117.970 229.058,116.415 229.977 C 112.820 232.102,110.804 232.645,108.872 232.008 C 107.288 231.486,107.157 231.415,100.440 227.420 C 97.814 225.859,95.510 224.581,95.319 224.581 C 95.128 224.581,94.972 224.246,94.972 223.836 C 94.972 223.426,95.147 223.091,95.360 223.091 C 95.573 223.091,96.856 222.573,98.210 221.940 C 100.194 221.013,100.824 220.866,101.454 221.187 C 102.687 221.817,105.015 223.161,107.558 224.713 C 110.387 226.440,110.425 226.434,115.455 223.465 C 117.537 222.235,119.298 221.229,119.367 221.229 C 119.436 221.229,121.196 220.223,123.277 218.994 C 125.359 217.765,127.135 216.760,127.223 216.760 C 127.310 216.760,128.748 215.904,130.416 214.858 C 133.402 212.987,133.903 212.694,137.616 210.637 C 138.641 210.070,139.646 209.478,139.851 209.321 C 140.056 209.165,141.229 208.487,142.458 207.815 C 143.687 207.143,144.816 206.408,144.966 206.183 C 145.117 205.957,145.240 196.806,145.240 185.847 C 145.240 174.888,145.117 165.737,144.966 165.511 C 144.733 165.161,141.241 163.104,134.078 159.098 C 133.156 158.582,131.269 157.435,129.884 156.548 C 128.500 155.661,127.312 154.935,127.246 154.935 C 127.180 154.935,125.045 153.745,122.501 152.291 C 117.815 149.612,116.613 148.934,112.740 146.782 C 111.476 146.080,110.304 145.672,109.910 145.797 C 108.930 146.108,98.147 152.233,89.455 157.415 C 86.933 158.919,84.810 160.149,84.737 160.149 C 84.664 160.149,82.901 161.155,80.819 162.384 C 78.738 163.613,76.935 164.618,76.815 164.618 C 75.248 164.618,75.233 164.826,75.233 185.894 L 75.233 205.936 77.288 207.251 C 78.419 207.974,79.401 208.566,79.470 208.566 C 79.539 208.566,81.086 209.435,82.907 210.497 C 87.141 212.965,90.020 213.246,91.967 211.383 L 93.110 210.289 93.110 189.920 C 93.110 174.077,93.213 169.466,93.575 169.169 C 94.473 168.433,99.076 168.448,99.491 169.189 C 100.363 170.747,99.704 211.537,98.776 213.474 C 95.822 219.635,88.714 220.646,80.558 216.065 C 79.166 215.283,76.853 214.012,75.419 213.240 C 72.052 211.427,70.208 209.648,69.668 207.689 C 68.800 204.538,69.306 164.728,70.237 162.942 C 71.202 161.092,74.017 159.234,85.601 152.802 C 86.556 152.272,88.343 151.216,89.572 150.456 C 90.801 149.696,94.221 147.694,97.172 146.006 C 100.123 144.319,103.140 142.588,103.876 142.160 C 108.678 139.368,111.047 138.985,113.996 140.523 M126.629 168.129 C 132.207 169.505,135.290 172.575,136.068 177.531 C 136.459 180.018,136.219 180.261,133.371 180.261 L 130.881 180.261 129.859 178.034 C 126.931 171.655,110.818 171.641,110.818 178.017 C 110.818 180.969,111.551 181.241,124.953 183.249 C 135.682 184.857,140.036 189.791,137.182 197.106 C 133.217 207.271,109.581 208.231,104.439 198.436 C 102.007 193.804,102.516 191.806,106.129 191.806 C 109.135 191.806,109.870 192.289,109.870 194.263 C 109.870 200.308,129.823 201.283,130.947 195.293 C 131.782 190.838,130.488 190.204,116.946 188.433 C 107.357 187.179,103.370 183.361,104.463 176.478 C 105.546 169.660,116.343 165.593,126.629 168.129 " stroke="none" fill="#a3fb7b" fill-rule="evenodd"></path><path id="path4" d="M182.775 20.882 C 174.632 29.049,167.970 35.904,167.970 36.115 C 167.970 36.326,167.795 36.499,167.580 36.499 C 167.072 36.499,163.501 40.070,163.501 40.578 C 163.501 40.793,163.325 40.968,163.111 40.968 C 162.602 40.968,159.032 44.539,159.032 45.047 C 159.032 45.262,158.865 45.438,158.661 45.438 C 158.182 45.438,123.277 80.350,123.277 80.830 C 123.277 81.029,123.114 81.192,122.915 81.192 C 122.716 81.192,119.473 84.273,115.710 88.039 L 108.867 94.887 154.247 140.306 C 179.206 165.286,199.628 185.648,199.628 185.554 C 199.628 185.460,199.883 185.595,200.195 185.854 C 200.672 186.251,200.723 186.223,200.513 185.676 C 200.319 185.170,210.100 175.179,244.590 140.651 C 268.970 116.245,289.019 95.976,289.145 95.609 C 289.602 94.275,200.748 5.950,198.994 5.995 C 197.641 6.030,196.930 6.683,182.775 20.882 M200.383 44.751 C 200.401 45.632,203.454 49.761,206.229 52.657 C 207.709 54.202,210.067 57.023,211.469 58.925 C 213.818 62.111,214.681 63.500,217.206 68.156 C 218.107 69.819,220.572 76.052,221.035 77.840 C 221.167 78.352,221.410 79.106,221.573 79.516 C 225.052 88.228,224.336 105.049,220.083 114.525 C 219.715 115.345,219.159 116.648,218.847 117.422 C 217.042 121.895,208.391 132.683,204.749 135.002 C 203.071 136.070,200.439 133.238,200.346 130.265 C 200.237 126.756,199.633 128.319,198.684 134.563 C 198.262 137.346,197.358 136.947,191.938 131.583 C 187.799 127.487,184.330 123.073,182.230 119.228 C 178.749 112.856,177.137 108.289,175.829 101.095 C 175.309 98.232,175.298 90.313,175.811 87.359 C 176.026 86.118,176.370 84.097,176.576 82.868 C 177.347 78.252,178.825 72.942,179.577 72.086 C 179.748 71.891,179.888 71.462,179.888 71.131 C 179.888 70.801,180.201 69.871,180.584 69.064 C 180.967 68.258,181.589 66.927,181.967 66.108 C 184.419 60.791,188.959 54.689,194.372 49.432 C 197.914 45.992,198.538 45.209,198.740 43.947 L 198.975 42.475 199.674 43.363 C 200.058 43.852,200.377 44.477,200.383 44.751 M201.862 148.634 C 201.862 149.542,200.992 149.414,200.811 148.479 C 200.739 148.112,200.929 147.858,201.276 147.858 C 201.622 147.858,201.862 148.177,201.862 148.634 M271.422 164.143 C 272.091 164.226,273.097 164.224,273.657 164.139 C 274.216 164.055,273.669 163.987,272.439 163.989 C 271.210 163.991,270.753 164.060,271.422 164.143 M260.428 180.354 L 260.521 181.564 272.067 181.573 L 283.613 181.581 272.183 181.474 L 260.754 181.367 260.545 180.255 C 260.340 179.168,260.337 179.170,260.428 180.354 M268.063 187.244 C 272.211 187.303,278.999 187.303,283.147 187.244 C 287.295 187.184,283.901 187.135,275.605 187.135 C 267.309 187.135,263.915 187.184,268.063 187.244 M257.728 200.489 C 257.728 200.553,258.273 201.098,258.939 201.699 L 260.149 202.793 259.055 201.583 C 258.035 200.455,257.728 200.201,257.728 200.489 M271.979 201.385 C 272.545 201.470,273.383 201.468,273.841 201.379 C 274.299 201.291,273.836 201.221,272.812 201.224 C 271.788 201.227,271.413 201.299,271.979 201.385 " stroke="none" fill="#c3bcbb" fill-rule="evenodd"></path></g></svg>