<?xml version="1.0" encoding="UTF-8"?>
<svg version="1.1" xmlns="http://www.w3.org/2000/svg" width="600" height="200">
<path d="M0 0 C223.74 0 447.48 0 678 0 C678 80.85 678 161.7 678 245 C454.26 245 230.52 245 0 245 C0 164.15 0 83.3 0 0 Z " fill="#FEFEFE" transform="translate(0,0)"/>
<path d="M0 0 C0.97066406 0.32871094 1.94132813 0.65742188 2.94140625 0.99609375 C20.24719014 7.51678677 34.17990824 20.03177392 41.87011719 36.90966797 C48.93202455 54.13912702 49.29834588 73.71650842 42.375 91.0625 C34.90638313 107.48260682 22.11040436 121.10380306 5.04296875 127.57421875 C-14.08597416 134.31467251 -32.83447768 134.05160156 -51.234375 125.49609375 C-68.53778323 116.19439114 -79.34147704 101.40139332 -86.0390625 83.171875 C-91.02021808 66.50595258 -88.55847555 48.50068889 -80.75 33.1875 C-70.65232118 15.70910256 -55.48927015 3.74750875 -36.125 -2 C-24.24676147 -4.49216449 -11.45618366 -3.96869196 0 0 Z " fill="#78B744" transform="translate(577,28)"/>
<path d="M0 0 C0.97066406 0.32871094 1.94132812 0.65742188 2.94140625 0.99609375 C21.22260582 7.88431627 34.49503824 21.01050578 42.66015625 38.5703125 C49.18057517 55.26106415 49.00561445 74.44992793 42.375 91.0625 C34.90638313 107.48260682 22.11040436 121.10380306 5.04296875 127.57421875 C-14.08597416 134.31467251 -32.83447768 134.05160156 -51.234375 125.49609375 C-68.53778323 116.19439114 -79.34147704 101.40139332 -86.0390625 83.171875 C-91.02021808 66.50595258 -88.55847555 48.50068889 -80.75 33.1875 C-70.65232118 15.70910256 -55.48927015 3.74750875 -36.125 -2 C-24.24676147 -4.49216449 -11.45618366 -3.96869196 0 0 Z " fill="#393939" transform="translate(282,28)"/>
<path d="M0 0 C0.97066406 0.32871094 1.94132812 0.65742188 2.94140625 0.99609375 C21.22260582 7.88431627 34.49503824 21.01050578 42.66015625 38.5703125 C49.18057517 55.26106415 49.00561445 74.44992793 42.375 91.0625 C34.90638313 107.48260682 22.11040436 121.10380306 5.04296875 127.57421875 C-12.4964553 133.75457473 -31.71946563 134.27319028 -48.91796875 126.609375 C-67.29916691 117.01108141 -78.94212409 102.76255622 -85.97265625 83.30859375 C-90.98186129 66.55688016 -88.60958377 48.60091715 -80.75 33.1875 C-70.65232118 15.70910256 -55.48927015 3.74750875 -36.125 -2 C-24.24676147 -4.49216449 -11.45618366 -3.96869196 0 0 Z " fill="#5C4037" transform="translate(135,28)"/>
<path d="M0 0 C0.97066406 0.32871094 1.94132812 0.65742188 2.94140625 0.99609375 C20.38957096 7.57043482 33.89943565 20.07404631 41.89208984 36.87524414 C48.66070338 52.44305528 49.31548895 71.39422965 43.8125 87.46875 C36.99921502 104.50196245 25.42246387 117.70746874 9 126 C-8.45501921 133.27983914 -28.06686273 134.71198995 -45.9375 127.9375 C-63.7844716 119.98472104 -76.2981482 106.70199383 -83.93359375 88.78515625 C-90.48167478 71.68339151 -89.90563626 53.26151737 -82.45703125 36.53515625 C-72.88253209 17.75862128 -58.36714585 6.22913086 -38.94140625 -1.1640625 C-26.52052689 -4.85070353 -12.16799164 -4.21527901 0 0 Z " fill="#DC1C17" transform="translate(429,28)"/>
<path d="M0 0 C0.66 0 1.32 0 2 0 C2.474375 1.11375 2.94875 2.2275 3.4375 3.375 C5.24526689 7.03524887 7.41380108 9.63812909 10.25 12.5625 C22.62558434 25.83664162 27.03045587 41.8671731 26.47265625 59.69140625 C25.6422546 72.554536 19.55922863 84.84893706 10.19140625 93.7109375 C8.82467291 94.84496564 7.41659892 95.92891301 6 97 C4.58365167 99.83269666 4.6536995 102.47466438 4.4375 105.625 C4.31181641 107.40777344 4.31181641 107.40777344 4.18359375 109.2265625 C4.09271484 110.59941406 4.09271484 110.59941406 4 112 C3.01 112 2.02 112 1 112 C0.93683594 111.2265625 0.87367187 110.453125 0.80859375 109.65625 C-0.14183648 101.57259077 -2.18609489 97.55498626 -8 92 C-18.71195063 81.05618897 -23.99855879 67.83973931 -24.375 52.5625 C-23.8933825 34.33513019 -17.12211816 19.21927103 -4.3203125 6.453125 C-2.29783233 4.31487997 -1.09576613 2.69533279 0 0 Z " fill="#58A94F" transform="translate(113,36)"/>
<path d="M0 0 C0.24419678 0.53850586 0.48839355 1.07701172 0.73999023 1.63183594 C5.56630545 12.25700692 10.44255358 22.8552248 15.4453125 33.3984375 C16.01666679 34.60336853 16.01666679 34.60336853 16.5995636 35.8326416 C18.50670539 39.85269872 20.41835431 43.87053895 22.33569336 47.88574219 C23.04812055 49.38471514 23.76044604 50.88373644 24.47265625 52.3828125 C24.9626561 53.40343277 24.9626561 53.40343277 25.46255493 54.44467163 C27.25680042 58.23023285 28.76368473 61.9971728 30 66 C26.7 66 23.4 66 20 66 C18.02 61.71 16.04 57.42 14 53 C7.07 52.505 7.07 52.505 0 52 C0 63.55 0 75.1 0 87 C-8.75749785 82.70086469 -17.41038261 78.30284191 -25.9375 73.5625 C-27.11771729 72.90725342 -27.11771729 72.90725342 -28.32177734 72.23876953 C-33.8645388 69.1354612 -33.8645388 69.1354612 -35 68 C-35.20329839 66.60646151 -35.34723645 65.20415158 -35.46484375 63.80078125 C-35.54162354 62.92856934 -35.61840332 62.05635742 -35.69750977 61.15771484 C-35.81630493 59.7493335 -35.81630493 59.7493335 -35.9375 58.3125 C-36.48493612 52.13243912 -37.08576082 46.00513171 -38.0625 39.875 C-39.37781882 31.29953559 -39.64924322 22.65815426 -40 14 C-34.59431408 11.46124631 -29.28673201 9.41978091 -23.54296875 7.78125 C-19.25359665 6.46347055 -15.14693902 4.70477754 -11 3 C-3.51271186 0 -3.51271186 0 0 0 Z " fill="#DC1D18" transform="translate(408,52)"/>
<path d="M0 0 C4.60651037 0.77267564 8.91243407 2.20774696 13.328125 3.6875 C14.11773621 3.95006592 14.90734741 4.21263184 15.72088623 4.4831543 C17.38212447 5.03644821 19.04286213 5.5912471 20.703125 6.14746094 C23.25373087 7.00124887 25.80641973 7.84857907 28.359375 8.6953125 C29.97408682 9.23399 31.58867462 9.77303943 33.203125 10.3125 C34.35303925 10.69378052 34.35303925 10.69378052 35.52618408 11.08276367 C40.88502955 12.88502955 40.88502955 12.88502955 42 14 C42.27477563 20.66887886 41.41101278 26.89681376 40.22021484 33.44433594 C39.34132171 38.57044562 38.9615917 43.31874109 39.15234375 48.5234375 C39.29876251 61.85918019 39.29876251 61.85918019 36 68 C28.6467234 74.77151434 19.32067132 78.7818022 10.18212891 82.60327148 C6.99871944 83.92012225 6.99871944 83.92012225 4.20458984 85.67993164 C2 87 2 87 0 87 C0 75.45 0 63.9 0 52 C4.62 52 9.24 52 14 52 C18.875 61.625 18.875 61.625 20 65 C22.97 65 25.94 65 29 65 C27.45345101 61.65691411 25.90542967 58.31451321 24.35629272 54.97262573 C23.78574895 53.74156149 23.21545649 52.51038074 22.64541626 51.27908325 C18.99350717 43.3927873 15.3074912 35.52391297 11.57421875 27.67578125 C10.83716081 26.1229215 10.10018108 24.57002463 9.36328125 23.01708984 C8.27816953 20.73052641 7.19109662 18.44500807 6.09765625 16.16241455 C5.07434974 14.02601623 4.0580381 11.88641517 3.04296875 9.74609375 C2.7342131 9.10666336 2.42545746 8.46723297 2.10734558 7.8084259 C0.78176233 4.99832156 0 3.15103111 0 0 Z " fill="#A6130E" transform="translate(408,52)"/>
<path d="M0 0 C0.66 0 1.32 0 2 0 C2.474375 1.11375 2.94875 2.2275 3.4375 3.375 C5.24526689 7.03524887 7.41380108 9.63812909 10.25 12.5625 C22.62558434 25.83664162 27.03045587 41.8671731 26.47265625 59.69140625 C25.63584246 72.6538617 19.48153139 84.77207984 10.15625 93.78125 C8.82048769 94.91538781 7.41867443 95.97146104 6 97 C3.71294307 95.37692734 2.2187812 93.96126511 1.58203125 91.16355896 C0.87566789 83.49440416 0.88421993 75.83826087 0.92483521 68.144701 C0.93773714 65.67730474 0.94414819 63.20996296 0.94897461 60.74253845 C0.96032199 55.51583418 0.97960111 50.28917574 1 45.0625 C1.02362547 38.97796905 1.04397375 32.893463 1.05593872 26.80889702 C1.06241732 24.37867189 1.07491707 21.94852507 1.08764648 19.51832581 C1.09127752 18.03443469 1.09462943 16.55054286 1.09765625 15.06665039 C1.10289307 13.77110733 1.10812988 12.47556427 1.11352539 11.14076233 C1.14660273 7.97022011 1.14660273 7.97022011 0 5 C-0.99 5 -1.98 5 -3 5 C-1.625 2.5 -1.625 2.5 0 0 Z " fill="#499C4A" transform="translate(113,36)"/>
<path d="M0 0 C3.15625 1.3894043 3.15625 1.3894043 6.5 3.32421875 C7.3981543 3.83913628 7.3981543 3.83913628 8.31445312 4.36445618 C9.57514587 5.09063418 10.83226934 5.82304029 12.0859375 6.5612793 C13.98677227 7.6797169 15.89822575 8.77780431 17.8125 9.87304688 C21.247104 11.86066389 24.66431624 13.84785441 28 16 C28.56438782 16.34406891 29.12877563 16.68813782 29.71026611 17.04263306 C32.04911933 18.66264294 33.76304875 20.16323806 34.55212402 22.94975281 C34.79479248 25.34177753 34.83190745 27.65844884 34.796875 30.0625 C34.80261536 30.93140869 34.80835571 31.80031738 34.81427002 32.69555664 C34.81834272 34.52785864 34.80734194 36.36024843 34.78222656 38.19238281 C34.75008933 40.99221761 34.78193409 43.78628157 34.8203125 46.5859375 C34.81634746 48.36980437 34.80865971 50.15366765 34.796875 51.9375 C34.81509308 53.18768921 34.81509308 53.18768921 34.8336792 54.46313477 C34.72530384 58.95742295 34.49535818 60.4763012 31.2902832 63.86474609 C28.40914807 65.7344803 25.5617507 67.56091894 22.55859375 69.2265625 C21.56279297 69.7834375 20.56699219 70.3403125 19.54101562 70.9140625 C18.51685547 71.47867188 17.49269531 72.04328125 16.4375 72.625 C14.3942682 73.76254849 12.35129055 74.90055359 10.30859375 76.0390625 C9.40939209 76.53615723 8.51019043 77.03325195 7.58374023 77.54541016 C5.81273855 78.54244578 4.06398169 79.57974629 2.33618164 80.64990234 C-0.87458155 82.50542753 -2.31240906 82.62619469 -6 82 C-9.47252446 80.20386666 -12.74464424 78.16165916 -16 76 C-15.505 74.515 -15.505 74.515 -15 73 C-12.875 72.25 -12.875 72.25 -10 72 C-9.01 72.680625 -8.02 73.36125 -7 74.0625 C-6.01 74.701875 -5.02 75.34125 -4 76 C-0.08420583 74.85521188 3.37632634 72.76770375 6.921875 70.77734375 C8.02917969 70.15666016 9.13648438 69.53597656 10.27734375 68.89648438 C11.42332031 68.25001953 12.56929687 67.60355469 13.75 66.9375 C14.92304157 66.280357 16.09621739 65.62345358 17.26953125 64.96679688 C22.42595068 62.39202564 22.42595068 62.39202564 27 59 C28.72805766 47.82864057 30.73707701 33.89700436 27 23 C21.77390619 16.06098342 13.78590439 12.85100951 5.77075195 10.05444336 C3 9 3 9 0.45385742 7.24438477 C-1.93488387 5.69496484 -1.93488387 5.69496484 -4.47412109 6.62695312 C-5.72443115 7.30661133 -5.72443115 7.30661133 -7 8 C-7.86834473 8.45826172 -8.73668945 8.91652344 -9.63134766 9.38867188 C-10.54964355 9.91009766 -11.46793945 10.43152344 -12.4140625 10.96875 C-13.42210937 11.53980469 -14.43015625 12.11085938 -15.46875 12.69921875 C-16.5103125 13.29347656 -17.551875 13.88773438 -18.625 14.5 C-19.67429687 15.09425781 -20.72359375 15.68851563 -21.8046875 16.30078125 C-27.48367769 19.51724973 -27.48367769 19.51724973 -33 23 C-33.2667616 25.76628915 -33.34804189 28.30619631 -33.29296875 31.0703125 C-33.28872391 31.86654022 -33.28447906 32.66276794 -33.28010559 33.48312378 C-33.26328834 36.03075729 -33.22563179 38.57760489 -33.1875 41.125 C-33.17245705 42.85024901 -33.15876796 44.57551039 -33.14648438 46.30078125 C-33.11337501 50.53415782 -33.06157285 54.76694559 -33 59 C-31.61518672 59.87191947 -30.21654754 60.72190384 -28.8125 61.5625 C-28.03519531 62.03816406 -27.25789062 62.51382813 -26.45703125 63.00390625 C-23.64571958 64.40594725 -23.64571958 64.40594725 -19 63 C-18.67 50.79 -18.34 38.58 -18 26 C-16.02 26 -14.04 26 -12 26 C-11.87618851 31.46256275 -11.78556174 36.92430488 -11.7253418 42.38793945 C-11.70023298 44.24550609 -11.66613866 46.10297427 -11.62280273 47.96020508 C-11.56198876 50.63387358 -11.5337548 53.30623365 -11.51171875 55.98046875 C-11.48591232 56.80773972 -11.4601059 57.63501068 -11.43351746 58.48735046 C-11.43140911 62.84429911 -11.58894347 64.48041009 -14.38745117 68.01782227 C-17.91894011 70.69721285 -19.91028729 70.82477695 -24.22265625 70.63671875 C-29.65368731 69.39163005 -35.05220587 65.94779413 -39 62 C-39.41446197 56.12616323 -39.52811716 50.25145089 -39.62475586 44.36474609 C-39.66637071 42.3818064 -39.72769614 40.39917625 -39.80932617 38.41748047 C-40.47084686 22.09633288 -40.47084686 22.09633288 -37.13818359 17.34643555 C-34.513137 15.47024229 -31.96848226 14.25674052 -29 13 C-27.05558106 11.84438431 -25.12337276 10.66800606 -23.203125 9.47265625 C-21.22181793 8.33059848 -19.23741396 7.1938971 -17.25 6.0625 C-16.24839844 5.47404297 -15.24679687 4.88558594 -14.21484375 4.27929688 C-13.24160156 3.72435547 -12.26835938 3.16941406 -11.265625 2.59765625 C-10.39711914 2.09758057 -9.52861328 1.59750488 -8.63378906 1.08227539 C-5.43543215 -0.23199196 -3.43614318 -0.41329682 0 0 Z " fill="#F5F9F2" transform="translate(559,52)"/>
<path d="M0 0 C2.90542373 3.50079288 4.7530926 7.39776799 6.66015625 11.4921875 C7.00667236 12.22701859 7.35318848 12.96184967 7.71020508 13.71894836 C8.83232755 16.10212678 9.94764863 18.4884126 11.0625 20.875 C11.82912655 22.50832228 12.59597294 24.1415414 13.36303711 25.7746582 C17.63959144 34.89219643 21.88496295 44.02412398 26.0625 53.1875 C26.47314697 54.08774902 26.88379395 54.98799805 27.30688477 55.91552734 C30 61.87148965 30 61.87148965 30 63 C26.7 63 23.4 63 20 63 C18.02 58.71 16.04 54.42 14 50 C5.42 50 -3.16 50 -12 50 C-13.65 54.29 -15.3 58.58 -17 63 C-20.63 63 -24.26 63 -28 63 C-26.41853878 57.87873796 -24.32970147 53.09415862 -22.11328125 48.2265625 C-21.73318405 47.38515717 -21.35308685 46.54375183 -20.96147156 45.67684937 C-19.74791094 42.99163923 -18.53041773 40.30823633 -17.3125 37.625 C-15.72386237 34.11781906 -14.13706591 30.6098082 -12.55078125 27.1015625 C-11.97192673 25.82336639 -11.97192673 25.82336639 -11.38137817 24.51934814 C-8.56182544 18.28110359 -5.80127666 12.01883404 -3.1028595 5.72720337 C-1.10626869 1.10626869 -1.10626869 1.10626869 0 0 Z " fill="#B4AEAD" transform="translate(408,55)"/>
<path d="M0 0 C3.98446707 2.36974871 6.95643894 5.15867812 9.51953125 9.05078125 C10.09703125 9.91703125 10.67453125 10.78328125 11.26953125 11.67578125 C12.51953125 15.05078125 12.51953125 15.05078125 12.51953125 26.05078125 C0.63953125 26.05078125 -11.24046875 26.05078125 -23.48046875 26.05078125 C-21.37581127 35.3308922 -21.37581127 35.3308922 -17.98046875 39.17578125 C-13.08408727 41.79884276 -8.92398119 41.81420068 -3.48046875 41.05078125 C-0.18141489 39.70422866 1.01831829 38.88613618 2.83203125 35.86328125 C3.05890625 35.26515625 3.28578125 34.66703125 3.51953125 34.05078125 C6.15953125 34.05078125 8.79953125 34.05078125 11.51953125 34.05078125 C11.51953125 37.36384697 11.06710336 39.43284357 8.84765625 41.9375 C2.24526278 47.8573152 -2.68869724 49.46757766 -11.5390625 49.3046875 C-17.48738826 48.7912198 -22.29610751 46.34823333 -26.48046875 42.05078125 C-31.05178146 33.70852034 -32.87434889 25.30151556 -31.0546875 15.8359375 C-28.91166735 9.19651923 -24.32818621 4.22047074 -18.85546875 0.05078125 C-12.77075446 -1.75209706 -6.01985737 -2.30366195 0 0 Z " fill="#F5F5F5" transform="translate(245.48046875,69.94921875)"/>
<path d="M0 0 C5.78968126 2.27846487 11.74525244 4.12255963 17.66015625 6.046875 C17.18041846 11.2987413 16.60739896 16.53074025 15.92553711 21.76049805 C15.1880352 27.41965483 14.55482578 33.03326121 14.22265625 38.734375 C14.11566406 39.86488281 14.00867188 40.99539062 13.8984375 42.16015625 C13.71041494 45.2270816 13.76606034 47.98077991 13.953125 51.02734375 C14.04565465 56.8791756 13.83660517 61.98110274 10.66015625 67.046875 C3.16700962 73.44195474 -6.01594377 77.4694115 -14.94628906 81.46875 C-18.60724491 83.17122616 -22.01039661 85.11894098 -25.40576172 87.296875 C-28.12924456 88.35298953 -29.56120551 87.91112431 -32.33984375 87.046875 C-34.48165901 86.04308905 -36.59021676 84.96698542 -38.671875 83.84375 C-39.26731613 83.52408264 -39.86275726 83.20441528 -40.47624207 82.87506104 C-41.73264614 82.19891441 -42.9873657 81.51962938 -44.24047852 80.83740234 C-46.1324911 79.80767975 -48.02953218 78.78779013 -49.92773438 77.76953125 C-52.34696366 76.47003486 -54.74904576 75.14475663 -57.14257812 73.79858398 C-60.19873192 72.06304201 -60.19873192 72.06304201 -62.94335938 70.90649414 C-65.24820092 69.8130453 -66.68713975 68.99559856 -68.33984375 67.046875 C-69.69288309 62.73587577 -69.96206168 58.47854861 -70.21484375 53.984375 C-70.39654945 51.63907357 -70.58142499 49.2940155 -70.76953125 46.94921875 C-70.85372314 45.79832764 -70.93791504 44.64743652 -71.0246582 43.46166992 C-71.42328091 39.14289705 -72.14002445 34.91603547 -72.8984375 30.64819336 C-73.42310517 27.55619446 -73.71008064 24.48876388 -73.90234375 21.359375 C-74.22816765 16.23263561 -74.74593604 11.14820712 -75.33984375 6.046875 C-74.39254395 5.73459961 -73.44524414 5.42232422 -72.46923828 5.10058594 C-68.90845508 3.92585104 -65.34905921 2.74695898 -61.79003906 1.56689453 C-60.2581799 1.05959888 -58.72596137 0.55338689 -57.19335938 0.04833984 C-45.62631754 -3.74930882 -45.62631754 -3.74930882 -34.328125 -8.27416992 C-24.37785138 -11.67197333 -9.233934 -3.86463104 0 0 Z M-38.17895508 -1.79541016 C-40.25802542 -0.98501668 -42.34772964 -0.2272362 -44.453125 0.51171875 C-45.13890625 0.75253174 -45.8246875 0.99334473 -46.53125 1.24145508 C-47.23121094 1.48661865 -47.93117188 1.73178223 -48.65234375 1.984375 C-56.25094589 4.65819732 -56.25094589 4.65819732 -63.83984375 7.359375 C-64.69578125 7.66488281 -65.55171875 7.97039063 -66.43359375 8.28515625 C-68.31679344 8.89241001 -68.31679344 8.89241001 -69.33984375 10.046875 C-69.32748501 12.77197805 -69.23943333 15.45297604 -69.08984375 18.171875 C-69.04537109 19.00920166 -69.00089844 19.84652832 -68.95507812 20.70922852 C-68.48014792 28.50766833 -67.54051372 36.22600047 -66.40258789 43.95385742 C-65.65784317 49.07229269 -65.3375319 53.8005478 -65.52734375 58.984375 C-65.22633208 62.71476962 -64.76006725 63.68915309 -61.87109375 66.1484375 C-58.836427 67.92811356 -55.80929412 69.45320592 -52.62304688 70.9296875 C-50.05734245 72.18510489 -47.60632689 73.58060691 -45.13671875 75.015625 C-44.24960205 75.52730225 -43.36248535 76.03897949 -42.44848633 76.56616211 C-40.68985426 77.58218563 -38.93438141 78.60370036 -37.18237305 79.63110352 C-36.36679932 80.08928467 -35.55122559 80.54746582 -34.7109375 81.01953125 C-33.62703735 81.64226929 -33.62703735 81.64226929 -32.52124023 82.27758789 C-29.67294171 83.2820634 -28.20808482 82.94551553 -25.33984375 82.046875 C-22.74864399 80.83038915 -22.74864399 80.83038915 -20.13671875 79.28125 C-18.66525391 78.44013672 -18.66525391 78.44013672 -17.1640625 77.58203125 C-16.14957031 76.99292969 -15.13507813 76.40382813 -14.08984375 75.796875 C-12.0847805 74.64558062 -10.07957405 73.49453559 -8.07421875 72.34375 C-7.18959961 71.83166992 -6.30498047 71.31958984 -5.39355469 70.79199219 C-2.33984375 69.046875 -2.33984375 69.046875 -0.04675293 68.06336975 C4.64244801 65.97453501 4.64244801 65.97453501 7.62945557 62.00991821 C8.16598779 59.49514233 8.42345177 57.07711159 8.59765625 54.51171875 C8.74146729 53.13821007 8.74146729 53.13821007 8.88818359 51.73695374 C9.18491494 48.82168942 9.42364817 45.90508124 9.66015625 42.984375 C9.84766024 41.01720227 10.03902658 39.05039361 10.234375 37.08398438 C10.66297897 32.75495964 11.0536871 28.42424511 11.41064453 24.08872986 C11.66452276 22.01114206 12.14098216 20.07201429 12.66015625 18.046875 C12.72472504 16.63152722 12.74626664 15.21349811 12.72265625 13.796875 C12.70203125 12.559375 12.68140625 11.321875 12.66015625 10.046875 C4.76906489 6.73682673 -3.27010613 4.01185659 -11.40234375 1.359375 C-13.83162114 0.5665299 -16.26005831 -0.22889599 -18.6875 -1.02734375 C-19.74976807 -1.37369873 -20.81203613 -1.72005371 -21.90649414 -2.0769043 C-24.33984375 -2.953125 -24.33984375 -2.953125 -25.33984375 -3.953125 C-30.20954148 -4.35065135 -33.66469449 -3.55979584 -38.17895508 -1.79541016 Z " fill="#B6A8A8" transform="translate(437.33984375,55.953125)"/>
<path d="M0 0 C0.97066406 0.32871094 1.94132812 0.65742188 2.94140625 0.99609375 C21.22260582 7.88431627 34.49503824 21.01050578 42.66015625 38.5703125 C49.18057517 55.26106415 49.00561445 74.44992793 42.375 91.0625 C34.90638313 107.48260682 22.11040436 121.10380306 5.04296875 127.57421875 C-12.4964553 133.75457473 -31.71946563 134.27319028 -48.91796875 126.609375 C-67.29916691 117.01108141 -78.94212409 102.76255622 -85.97265625 83.30859375 C-90.98186129 66.55688016 -88.60958377 48.60091715 -80.75 33.1875 C-70.65232118 15.70910256 -55.48927015 3.74750875 -36.125 -2 C-24.24676147 -4.49216449 -11.45618366 -3.96869196 0 0 Z M-72.875 26.375 C-82.34513141 39.3560094 -85.79039738 54.17125245 -85 70 C-84.99226563 70.74378906 -84.98453125 71.48757812 -84.9765625 72.25390625 C-84.39381833 84.06568238 -78.33108109 96.01089171 -71 105 C-70.49082031 105.68191406 -69.98164062 106.36382812 -69.45703125 107.06640625 C-61.78143979 116.75091794 -50.55072328 123.08394282 -39 127 C-37.95199219 127.36738281 -37.95199219 127.36738281 -36.8828125 127.7421875 C-20.61443754 132.3631656 -2.31520143 128.47745352 12.22265625 120.69140625 C26.85368447 111.78108949 37.81348193 98.62598116 42.16796875 81.90234375 C46.40435195 62.94515899 43.97384191 45.7008386 34 29 C23.23066387 13.06303617 7.97304129 4.31622957 -10.53125 0.7265625 C-35.54460722 -3.62957725 -57.10514651 7.6504463 -72.875 26.375 Z " fill="#3F2E29" transform="translate(135,28)"/>
<path d="M0 0 C0.97066406 0.32871094 1.94132812 0.65742188 2.94140625 0.99609375 C20.38957096 7.57043482 33.89943565 20.07404631 41.89208984 36.87524414 C48.66070338 52.44305528 49.31548895 71.39422965 43.8125 87.46875 C36.99921502 104.50196245 25.42246387 117.70746874 9 126 C-8.45501921 133.27983914 -28.06686273 134.71198995 -45.9375 127.9375 C-63.7844716 119.98472104 -76.2981482 106.70199383 -83.93359375 88.78515625 C-90.48167478 71.68339151 -89.90563626 53.26151737 -82.45703125 36.53515625 C-72.88253209 17.75862128 -58.36714585 6.22913086 -38.94140625 -1.1640625 C-26.52052689 -4.85070353 -12.16799164 -4.21527901 0 0 Z M-72.875 26.375 C-82.87206055 40.07828787 -87.03132014 57.22936064 -85 74 C-81.61535138 91.24726368 -72.90915472 106.4940762 -58.79296875 117.15234375 C-43.40019687 127.33525438 -26.32890482 131.75817498 -8.00390625 128.34375 C9.7217898 124.06449768 24.5493149 115.00193882 34.54296875 99.5859375 C43.74305085 83.25764165 46.94801898 64.44708993 42.09765625 46.21875 C35.9973269 28.33023973 24.72997765 15.15800517 8.125 6.1875 C-21.7714809 -7.50119078 -52.16709708 1.67083511 -72.875 26.375 Z " fill="#9D1916" transform="translate(429,28)"/>
<path d="M0 0 C0.97066406 0.32871094 1.94132813 0.65742188 2.94140625 0.99609375 C20.24719014 7.51678677 34.17990824 20.03177392 41.87011719 36.90966797 C48.93202455 54.13912702 49.29834588 73.71650842 42.375 91.0625 C34.90638313 107.48260682 22.11040436 121.10380306 5.04296875 127.57421875 C-14.08597416 134.31467251 -32.83447768 134.05160156 -51.234375 125.49609375 C-68.53778323 116.19439114 -79.34147704 101.40139332 -86.0390625 83.171875 C-91.02021808 66.50595258 -88.55847555 48.50068889 -80.75 33.1875 C-70.65232118 15.70910256 -55.48927015 3.74750875 -36.125 -2 C-24.24676147 -4.49216449 -11.45618366 -3.96869196 0 0 Z M-41 3 C-42.49080078 3.52787109 -42.49080078 3.52787109 -44.01171875 4.06640625 C-51.00185493 6.72388588 -56.34837173 10.15412596 -62 15 C-62.99 15.721875 -63.98 16.44375 -65 17.1875 C-76.82973591 27.23783274 -83.83834347 42.83148617 -85.18457031 58.09228516 C-86.33977557 76.88722533 -81.31547501 93.45679433 -69.07055664 107.88964844 C-57.77246011 120.53394359 -42.38715946 128.32578833 -25.48828125 129.2890625 C-7.03859656 129.99424885 9.26435754 125.30561323 23.25 112.75 C36.30684641 100.51270775 43.7442009 84.73109143 44.45556641 66.83764648 C44.78349015 47.74059295 38.12110497 31.54814535 24.8671875 17.609375 C16.82494798 10.29027963 7.49953483 4.93682641 -3 2 C-4.23363281 1.64421875 -5.46726562 1.2884375 -6.73828125 0.921875 C-11.27473797 -0.18934392 -15.65739643 -0.34500705 -20.3125 -0.3125 C-21.14918213 -0.30758545 -21.98586426 -0.3026709 -22.84790039 -0.29760742 C-29.29824408 -0.17571412 -34.94730867 0.6849153 -41 3 Z " fill="#567E36" transform="translate(577,28)"/>
<path d="M0 0 C4.0226014 -1.12041509 7.01040475 -1.33313257 11 0 C15.61077927 4.52357112 18.82731594 10.42067603 22 16 C25.38883263 12.92467171 27.37560431 9.71276517 29.625 5.75 C33.17162312 0.23600481 33.17162312 0.23600481 36.7421875 -0.78125 C39.26448299 -0.75266875 41.53994934 -0.54443744 44 0 C42.59969587 3.02508126 40.93827058 5.52642231 38.890625 8.15234375 C38.30152344 8.92900391 37.71242188 9.70566406 37.10546875 10.50585938 C35.86459115 12.13206213 34.61184805 13.74927645 33.34765625 15.35742188 C32.47173828 16.5243457 32.47173828 16.5243457 31.578125 17.71484375 C31.03575195 18.41730225 30.49337891 19.11976074 29.93457031 19.84350586 C28.729653 22.01646312 28.729653 22.01646312 29.65332031 24.50219727 C30.95338449 26.9135382 32.3272204 29.05858841 33.96875 31.25 C34.53980469 32.0234375 35.11085938 32.796875 35.69921875 33.59375 C36.29347656 34.3878125 36.88773437 35.181875 37.5 36 C38.6821188 37.5795774 39.85937384 39.16280881 41.03125 40.75 C41.55267578 41.44609375 42.07410156 42.1421875 42.61132812 42.859375 C44.10167479 45.15673076 45.06408353 47.4324018 46 50 C42.50706362 50.60226077 39.47641075 50.7711265 36 50 C32.89114115 47.29070304 30.96255238 44.02776279 28.875 40.5 C28.30007813 39.59378906 27.72515625 38.68757813 27.1328125 37.75390625 C25.72220185 35.52043939 24.34768512 33.2717939 23 31 C19.47080376 34.22123845 17.161711 37.24643489 14.86694336 41.41943359 C10.32749389 49.56921159 10.32749389 49.56921159 6.1953125 50.91015625 C3.65599847 50.87778539 1.45215442 50.64503436 -1 50 C0.3530382 47.14513315 1.88563599 44.60515991 3.71484375 42.03125 C4.23626953 41.29519531 4.75769531 40.55914062 5.29492188 39.80078125 C5.83697266 39.04152344 6.37902344 38.28226563 6.9375 37.5 C7.47568359 36.74074219 8.01386719 35.98148438 8.56835938 35.19921875 C12.87704139 29.13199944 12.87704139 29.13199944 14.80297852 27.06445312 C16.3075099 25.02043647 16.3075099 25.02043647 15.39111328 22.53808594 C13.99254864 19.986405 12.49456624 17.71307827 10.7421875 15.390625 C10.11699219 14.55402344 9.49179687 13.71742187 8.84765625 12.85546875 C8.19667969 11.99566406 7.54570312 11.13585937 6.875 10.25 C5.57872295 8.52754967 4.28434067 6.80367115 2.9921875 5.078125 C2.41839355 4.31918945 1.84459961 3.56025391 1.25341797 2.77832031 C0 1 0 1 0 0 Z " fill="#F8F8F8" transform="translate(262,69)"/>
<path d="M0 0 C0.88429688 -0.03738281 1.76859375 -0.07476562 2.6796875 -0.11328125 C5.125 0.3125 5.125 0.3125 6.66381836 2.04125977 C8.15801518 4.36381834 9.06232137 6.4676346 9.94921875 9.078125 C10.25537109 9.96757812 10.56152344 10.85703125 10.87695312 11.7734375 C11.34004883 13.15402344 11.34004883 13.15402344 11.8125 14.5625 C12.13283203 15.49835938 12.45316406 16.43421875 12.78320312 17.3984375 C13.57030358 19.70100003 14.35064083 22.00562779 15.125 24.3125 C18.01670564 19.98788947 19.56447867 15.51896967 21.1875 10.625 C23.85484375 2.58265625 23.85484375 2.58265625 26.125 0.3125 C29.425 0.3125 32.725 0.3125 36.125 0.3125 C36.125 12.1925 36.125 24.0725 36.125 36.3125 C34.145 36.3125 32.165 36.3125 30.125 36.3125 C29.795 26.7425 29.465 17.1725 29.125 7.3125 C28.41472656 9.32214844 27.70445313 11.33179688 26.97265625 13.40234375 C26.28494577 15.34195944 25.59625674 17.28122502 24.9074707 19.22045898 C24.42825435 20.57133235 23.95006069 21.92256895 23.47290039 23.27416992 C22.78798865 25.21368634 22.09944371 27.15187881 21.41015625 29.08984375 C20.99644775 30.25765381 20.58273926 31.42546387 20.15649414 32.62866211 C19.125 35.3125 19.125 35.3125 18.125 36.3125 C15.75 36.6875 15.75 36.6875 13.125 36.3125 C10.7902739 33.00203425 9.38307896 29.61079727 8.08203125 25.79296875 C7.73076172 24.77138672 7.37949219 23.74980469 7.01757812 22.69726562 C6.66115234 21.64216797 6.30472656 20.58707031 5.9375 19.5 C5.56947266 18.42556641 5.20144531 17.35113281 4.82226562 16.24414062 C3.91805304 13.60196098 3.01915623 10.95809628 2.125 8.3125 C2.09994385 9.12517334 2.0748877 9.93784668 2.04907227 10.77514648 C1.93350882 14.43360752 1.81060416 18.09178528 1.6875 21.75 C1.64818359 23.02939453 1.60886719 24.30878906 1.56835938 25.62695312 C1.52646484 26.84189453 1.48457031 28.05683594 1.44140625 29.30859375 C1.40474854 30.43450928 1.36809082 31.5604248 1.33032227 32.72045898 C1.125 35.3125 1.125 35.3125 0.125 36.3125 C-2.375 36.4375 -2.375 36.4375 -4.875 36.3125 C-6.6079298 34.5795702 -6.00320046 32.35035664 -6.01394653 30.04101562 C-6.0119223 29.30560547 -6.00989807 28.57019531 -6.0078125 27.8125 C-6.00876923 27.06162109 -6.00972595 26.31074219 -6.01071167 25.53710938 C-6.01139338 23.94661373 -6.00953972 22.35611533 -6.00537109 20.765625 C-6.00002267 18.32285345 -6.00531634 15.88026579 -6.01171875 13.4375 C-6.01105797 11.89583293 -6.0097768 10.35416597 -6.0078125 8.8125 C-6.00983673 8.07708984 -6.01186096 7.34167969 -6.01394653 6.58398438 C-5.98675963 0.74149238 -5.82217522 0.16032077 0 0 Z " fill="#3B863F" transform="translate(98.875,186.6875)"/>
<path d="M0 0 C0.97066406 0.32871094 1.94132812 0.65742188 2.94140625 0.99609375 C21.22260582 7.88431627 34.49503824 21.01050578 42.66015625 38.5703125 C48.71697451 54.07435458 49.64854524 73.78133639 42.875 89.25 C42.2643051 90.50705081 41.6449572 91.76017936 41 93 C40.34 93 39.68 93 39 93 C39.30798326 91.51988629 39.621518 90.04092675 39.9375 88.5625 C40.19853516 87.32693359 40.19853516 87.32693359 40.46484375 86.06640625 C41 84 41 84 42 83 C45.0627356 63.45578076 43.70029207 44.57945951 32 28 C30.16315095 25.75933005 28.29118617 23.6132357 26.28515625 21.5234375 C25 20 25 20 25 18 C24.4328125 17.73832031 23.865625 17.47664063 23.28125 17.20703125 C20.8151383 15.9021879 18.72953223 14.36336506 16.5 12.6875 C1.23646028 1.88145418 -16.98098544 -0.21834556 -35.20019531 2.3046875 C-39.00821225 3.08418757 -42.47441024 4.38787135 -46 6 C-46.94617188 6.42410156 -47.89234375 6.84820312 -48.8671875 7.28515625 C-55.90226995 10.78320971 -61.46663736 15.46663736 -67 21 C-67.57621094 21.57621094 -68.15242188 22.15242188 -68.74609375 22.74609375 C-81.19434664 36.22900662 -84.70239516 54.34574468 -86 72 C-86.33 72 -86.66 72 -87 72 C-87.8344772 47.95421858 -87.8344772 47.95421858 -83 38 C-82.56429687 37.07316406 -82.12859375 36.14632812 -81.6796875 35.19140625 C-72.4505666 17.0105424 -57.65144326 5.95674341 -38.94140625 -1.1640625 C-26.52052689 -4.85070353 -12.16799164 -4.21527901 0 0 Z " fill="#252525" transform="translate(282,28)"/>
<path d="M0 0 C3 1 3 1 4.02734375 2.71484375 C4.47787109 3.81505859 4.47787109 3.81505859 4.9375 4.9375 C5.44023438 6.14986328 5.44023438 6.14986328 5.953125 7.38671875 C6.29859375 8.24910156 6.6440625 9.11148438 7 10 C7.36609375 10.87269531 7.7321875 11.74539062 8.109375 12.64453125 C11.4243128 20.65563094 12.19443269 27.36533885 12.1875 36 C12.18669434 37.02859131 12.18588867 38.05718262 12.18505859 39.11694336 C12.10681616 48.85045499 11.21320207 57.75311848 8 67 C7.70480469 68.00160156 7.40960937 69.00320312 7.10546875 70.03515625 C4.04940228 78.23146173 -2.59309332 85.19086691 -9 91 C-10.36125 92.2684375 -10.36125 92.2684375 -11.75 93.5625 C-26.58450751 105.52454319 -45.83153513 109.5238649 -64.4453125 107.76953125 C-65.97025487 107.55653323 -67.48744823 107.2881051 -69 107 C-69 106.34 -69 105.68 -69 105 C-69.99 105 -70.98 105 -72 105 C-72 104.34 -72 103.68 -72 103 C-72.92619141 102.83564453 -72.92619141 102.83564453 -73.87109375 102.66796875 C-78.30189373 101.83845825 -82.67729709 100.9112677 -87 99.625 C-87.721875 99.41101563 -88.44375 99.19703125 -89.1875 98.9765625 C-91.51426929 97.72291525 -91.90971501 96.34720742 -93 94 C-93.763125 93.855625 -94.52625 93.71125 -95.3125 93.5625 C-99.01125902 92.78834114 -100.5281083 90.75439361 -103 88 C-102.505 87.01 -102.505 87.01 -102 86 C-101.20078125 86.59167969 -100.4015625 87.18335938 -99.578125 87.79296875 C-83.30620245 99.59554323 -66.77923332 104.27337233 -46.74316406 101.71142578 C-29.1650123 98.68141119 -14.73165258 89.87388145 -3.625 76.0625 C7.59861824 59.90578701 11.05384676 41.75196031 8.5390625 22.46484375 C6.88028397 14.43440418 3.6885228 7.29348683 0 0 Z " fill="#E7E7E7" transform="translate(614,57)"/>
<path d="M0 0 C1.23556641 0.01740234 1.23556641 0.01740234 2.49609375 0.03515625 C3.32238281 0.04417969 4.14867187 0.05320313 5 0.0625 C5.63808594 0.07410156 6.27617188 0.08570313 6.93359375 0.09765625 C8.53991311 2.97145846 10.1432559 5.84691102 11.74609375 8.72265625 C12.19791016 9.53089844 12.64972656 10.33914062 13.11523438 11.171875 C13.55673828 11.96464844 13.99824219 12.75742188 14.453125 13.57421875 C14.85635986 14.29689941 15.25959473 15.01958008 15.67504883 15.76416016 C17.15587717 18.50979687 18.53850425 21.30747725 19.93359375 24.09765625 C20.26359375 16.17765625 20.59359375 8.25765625 20.93359375 0.09765625 C22.91359375 0.09765625 24.89359375 0.09765625 26.93359375 0.09765625 C26.95824473 5.06387974 26.97643024 10.03006791 26.98852539 14.99633789 C26.99356565 16.68709941 27.0003978 18.37785654 27.0090332 20.06860352 C27.02111232 22.49366332 27.02682498 24.91866569 27.03125 27.34375 C27.03641129 28.10417099 27.04157257 28.86459198 27.04689026 29.64805603 C27.04708613 31.46498195 26.99556652 33.28178752 26.93359375 35.09765625 C25.93359375 36.09765625 25.93359375 36.09765625 22.74609375 36.72265625 C18.93359375 36.09765625 18.93359375 36.09765625 17.41796875 34.65234375 C12.39239159 27.39010862 8.77619825 19.03047939 4.93359375 11.09765625 C4.60359375 10.43765625 4.27359375 9.77765625 3.93359375 9.09765625 C3.60359375 18.00765625 3.27359375 26.91765625 2.93359375 36.09765625 C1.28359375 36.09765625 -0.36640625 36.09765625 -2.06640625 36.09765625 C-3.79933605 34.36472645 -3.19460671 32.13551289 -3.20535278 29.82617188 C-3.20332855 29.09076172 -3.20130432 28.35535156 -3.19921875 27.59765625 C-3.20017548 26.84677734 -3.2011322 26.09589844 -3.20211792 25.32226562 C-3.20279963 23.73176998 -3.20094597 22.14127158 -3.19677734 20.55078125 C-3.19142892 18.1080097 -3.19672259 15.66542204 -3.203125 13.22265625 C-3.20246422 11.68098918 -3.20118305 10.13932222 -3.19921875 8.59765625 C-3.20124298 7.86224609 -3.20326721 7.12683594 -3.20535278 6.36914062 C-3.17641375 0.15011407 -3.17641375 0.15011407 0 0 Z " fill="#79B744" transform="translate(545.06640625,186.90234375)"/>
<path d="M0 0 C2.97 0 5.94 0 9 0 C12.25917552 7.38946708 15.11300844 14.89102762 17.8125 22.5 C18.12646729 23.37237305 18.44043457 24.24474609 18.76391602 25.14355469 C19.19982056 26.38733887 19.19982056 26.38733887 19.64453125 27.65625 C19.90596924 28.39681641 20.16740723 29.13738281 20.43676758 29.90039062 C21 32 21 32 21 36 C18.69 36 16.38 36 14 36 C12.50178941 32.62902617 12 30.79557881 12 27 C7.05 27 2.1 27 -3 27 C-3.99 29.97 -4.98 32.94 -6 36 C-7.98 36 -9.96 36 -12 36 C-11.38321299 32.65928618 -10.5829371 29.49238976 -9.51171875 26.26953125 C-9.21716797 25.38330078 -8.92261719 24.49707031 -8.61914062 23.58398438 C-8.31169922 22.66939453 -8.00425781 21.75480469 -7.6875 20.8125 C-7.39166016 19.91724609 -7.09582031 19.02199219 -6.79101562 18.09960938 C-4.74287623 11.97288571 -2.4627485 5.97174162 0 0 Z " fill="#DD1D18" transform="translate(404,187)"/>
<path d="M0 0 C0.33 0 0.66 0 1 0 C2.17818159 14.61272444 -0.44534314 24.93457907 -7 38 C-4.36 38 -1.72 38 1 38 C1 40.64 1 43.28 1 46 C-4.94 46.495 -4.94 46.495 -11 47 C-12.65 51.29 -14.3 55.58 -16 60 C-19.63 60 -23.26 60 -27 60 C-25.41064358 54.8623964 -23.32297839 50.0474379 -21.11328125 45.15625 C-20.73318405 44.31010132 -20.35308685 43.46395264 -19.96147156 42.59216309 C-19.15681662 40.80298517 -18.35069919 39.01446436 -17.54321289 37.2265625 C-16.32982383 34.53837979 -15.12258294 31.84750024 -13.91601562 29.15625 C-9.49268281 19.3213168 -4.93088408 9.59177451 0 0 Z " fill="#F1EBEB" transform="translate(407,58)"/>
<path d="M0 0 C2.21356955 1.45197012 3.96096022 3.29299147 5.828125 5.16015625 C5.953125 7.78515625 5.953125 7.78515625 5.828125 10.16015625 C3.578125 10.47265625 3.578125 10.47265625 0.828125 10.16015625 C0.291875 9.33515625 -0.244375 8.51015625 -0.796875 7.66015625 C-2.9132116 4.90227786 -2.9132116 4.90227786 -5.8671875 4.828125 C-8.64999295 4.84591787 -11.39771065 4.94491936 -14.171875 5.16015625 C-14.501875 6.81015625 -14.831875 8.46015625 -15.171875 10.16015625 C-13.93050781 10.39089844 -12.68914063 10.62164062 -11.41015625 10.859375 C-9.76802854 11.18780054 -8.12611208 11.51728356 -6.484375 11.84765625 C-5.66775391 11.99654297 -4.85113281 12.14542969 -4.00976562 12.29882812 C1.28402473 13.39187795 4.46332011 14.6372006 7.828125 19.16015625 C7.828125 22.85093915 7.33014102 25.23142661 5.578125 28.47265625 C1.74142941 32.172327 -2.53091544 32.43417943 -7.671875 32.41015625 C-8.7753125 32.4153125 -9.87875 32.42046875 -11.015625 32.42578125 C-15.5720365 32.04232088 -18.24571766 31.08631359 -21.484375 27.84765625 C-23.3151466 24.93198296 -23.55665578 23.52698806 -23.171875 20.16015625 C-20.859375 19.84765625 -20.859375 19.84765625 -18.171875 20.16015625 C-16.421875 22.59765625 -16.421875 22.59765625 -15.171875 25.16015625 C-14.12412511 26.4302159 -14.12412511 26.4302159 -11.7734375 26.29296875 C-10.79117188 26.29039063 -9.80890625 26.2878125 -8.796875 26.28515625 C-7.81976562 26.28773437 -6.84265625 26.2903125 -5.8359375 26.29296875 C-3.06723084 26.2744966 -3.06723084 26.2744966 -0.171875 25.16015625 C-0.171875 23.51015625 -0.171875 21.86015625 -0.171875 20.16015625 C-1.92564453 19.92232422 -1.92564453 19.92232422 -3.71484375 19.6796875 C-5.26318485 19.44509036 -6.81135347 19.20935292 -8.359375 18.97265625 C-9.12830078 18.87146484 -9.89722656 18.77027344 -10.68945312 18.66601562 C-15.95823523 17.82934207 -18.82186927 16.59398736 -22.171875 12.16015625 C-23.12892509 9.33712581 -22.94058456 7.02692272 -22.171875 4.16015625 C-17.32328662 -2.6849097 -7.50479712 -2.90203486 0 0 Z " fill="#F7FAF4" transform="translate(573.171875,77.83984375)"/>
<path d="M0 0 C3 1 3 1 3.9921875 2.5390625 C5.03819416 5.01060036 6.0279022 7.4983777 7 10 C7.45117188 11.03125 7.90234375 12.0625 8.3671875 13.125 C14.29308531 28.12388259 14.88591575 49.28220206 8.63671875 64.26953125 C7.18493434 67.24875136 5.65799153 70.13121059 4 73 C3.54496094 73.81855469 3.08992188 74.63710937 2.62109375 75.48046875 C-6.15742304 89.12418761 -19.67461938 98.99544068 -35 104 C-41.78770913 105.20638085 -48.55693846 105.18341173 -55.4375 105.1875 C-57.05881836 105.20586914 -57.05881836 105.20586914 -58.71289062 105.22460938 C-67.63165179 105.24083514 -75.10465883 104.0657906 -83.3125 100.5 C-84.29863281 100.0771875 -85.28476563 99.654375 -86.30078125 99.21875 C-88.5647764 98.19651196 -90.79025613 97.13374032 -93 96 C-93 95.34 -93 94.68 -93 94 C-93.721875 93.938125 -94.44375 93.87625 -95.1875 93.8125 C-98.84657625 92.75543353 -100.49211602 90.79449929 -103 88 C-102.505 87.01 -102.505 87.01 -102 86 C-101.20078125 86.59167969 -100.4015625 87.18335938 -99.578125 87.79296875 C-83.76439389 99.27024603 -66.5694629 104.47345226 -46.95019531 101.71142578 C-29.30601246 98.55916769 -14.84073518 90.0095282 -3.625 76.0625 C7.02798087 60.72723551 11.5201852 42.44731979 8.68359375 23.93505859 C6.9736095 15.49512419 3.88408402 7.65673939 0 0 Z " fill="#B3B2B2" transform="translate(172,57)"/>
<path d="M0 0 C3 1 3 1 3.9921875 2.5390625 C5.03819416 5.01060036 6.0279022 7.4983777 7 10 C7.45117188 11.03125 7.90234375 12.0625 8.3671875 13.125 C14.29308531 28.12388259 14.88591575 49.28220206 8.63671875 64.26953125 C7.18493434 67.24875136 5.65799153 70.13121059 4 73 C3.54496094 73.81855469 3.08992188 74.63710937 2.62109375 75.48046875 C-6.15742304 89.12418761 -19.67461938 98.99544068 -35 104 C-41.78770913 105.20638085 -48.55693846 105.18341173 -55.4375 105.1875 C-57.05881836 105.20586914 -57.05881836 105.20586914 -58.71289062 105.22460938 C-67.63165179 105.24083514 -75.10465883 104.0657906 -83.3125 100.5 C-84.29863281 100.0771875 -85.28476563 99.654375 -86.30078125 99.21875 C-88.5647764 98.19651196 -90.79025613 97.13374032 -93 96 C-93 95.34 -93 94.68 -93 94 C-93.66 94 -94.32 94 -95 94 C-94.505 93.01 -94.505 93.01 -94 92 C-92.67548828 92.70576172 -92.67548828 92.70576172 -91.32421875 93.42578125 C-73.8388693 102.58535772 -55.94257529 105.17908213 -36.7421875 99.3125 C-19.23641618 93.17268876 -6.37014309 82.5531407 2.1875 66.0625 C10.07569742 49.64596349 11.43521744 31.94127528 6.22265625 14.47265625 C4.46689473 9.48584476 2.39096898 4.7133446 0 0 Z " fill="#B2B2B2" transform="translate(319,57)"/>
<path d="M0 0 C3 1 3 1 4.02734375 2.78515625 C4.47787109 3.91244141 4.47787109 3.91244141 4.9375 5.0625 C6.19871739 8.12614684 7.53113871 11.03418389 9.125 13.9375 C11.12563981 17.82894057 11.90337879 21.69825331 12.60546875 25.99609375 C12.80483507 27.99056656 12.80483507 27.99056656 14 29 C14.62466216 42.82972959 14.01320387 54.697833 7 67 C6.34773438 67.64324219 5.69546875 68.28648438 5.0234375 68.94921875 C2.83756624 70.95173668 2.83756624 70.95173668 1.56640625 73.87890625 C-6.29915826 89.55119064 -23.45303555 98.38308521 -39.1953125 104.17578125 C-44.54163557 105.33396828 -49.73096417 105.38148093 -55.1875 105.375 C-56.85510376 105.37693359 -56.85510376 105.37693359 -58.55639648 105.37890625 C-66.36586106 105.27802803 -72.92793834 104.54394142 -80 101 C-76.58059306 99.86019769 -75.28299199 100.20510652 -71.8125 100.9375 C-53.10524987 104.20170129 -35.14452085 101.27034073 -19 91 C-4.69616217 80.19284131 5.32469999 65.1061273 8.6875 47.375 C10.35368035 30.0189547 7.2716503 15.61374658 0 0 Z " fill="#A49F9F" transform="translate(466,57)"/>
<path d="M0 0 C0.83265381 0.00523682 1.66530762 0.01047363 2.52319336 0.01586914 C3.42231445 0.0190918 4.32143555 0.02231445 5.24780273 0.02563477 C6.66609375 0.03820312 6.66609375 0.03820312 8.11303711 0.05102539 C9.06243164 0.05553711 10.01182617 0.06004883 10.98999023 0.06469727 C13.34356776 0.07652429 15.69702188 0.09300514 18.05053711 0.11352539 C18.05053711 1.76352539 18.05053711 3.41352539 18.05053711 5.11352539 C13.43053711 5.11352539 8.81053711 5.11352539 4.05053711 5.11352539 C4.05053711 8.41352539 4.05053711 11.71352539 4.05053711 15.11352539 C8.01053711 15.11352539 11.97053711 15.11352539 16.05053711 15.11352539 C16.05053711 16.43352539 16.05053711 17.75352539 16.05053711 19.11352539 C12.09053711 19.11352539 8.13053711 19.11352539 4.05053711 19.11352539 C4.05053711 23.07352539 4.05053711 27.03352539 4.05053711 31.11352539 C8.67053711 31.11352539 13.29053711 31.11352539 18.05053711 31.11352539 C18.05053711 32.76352539 18.05053711 34.41352539 18.05053711 36.11352539 C14.73805524 36.14240686 11.42560544 36.16028338 8.11303711 36.17602539 C7.16750977 36.1844043 6.22198242 36.1927832 5.24780273 36.20141602 C3.89912109 36.20625 3.89912109 36.20625 2.52319336 36.21118164 C1.27421265 36.21903687 1.27421265 36.21903687 0 36.22705078 C-1.94946289 36.11352539 -1.94946289 36.11352539 -2.94946289 35.11352539 C-3.05033501 32.60428386 -3.08918321 30.12316155 -3.08227539 27.61352539 C-3.08323212 26.86264648 -3.08418884 26.11176758 -3.08517456 25.33813477 C-3.08585627 23.74763912 -3.08400261 22.15714072 -3.07983398 20.56665039 C-3.07448556 18.12387884 -3.07977923 15.68129118 -3.08618164 13.23852539 C-3.08552086 11.69685832 -3.08423969 10.15519136 -3.08227539 8.61352539 C-3.08429962 7.87811523 -3.08632385 7.14270508 -3.08840942 6.38500977 C-3.05952709 0.17816908 -3.05952709 0.17816908 0 0 Z " fill="#353535" transform="translate(253.949462890625,186.886474609375)"/>
<path d="M0 0 C3 1 3 1 4.02734375 2.71484375 C4.47787109 3.81505859 4.47787109 3.81505859 4.9375 4.9375 C5.44023438 6.14986328 5.44023438 6.14986328 5.953125 7.38671875 C6.29859375 8.24910156 6.6440625 9.11148438 7 10 C7.36609375 10.87269531 7.7321875 11.74539062 8.109375 12.64453125 C11.43503655 20.68154666 12.20557427 27.46198216 12.25 36.125 C12.270625 37.10726562 12.29125 38.08953125 12.3125 39.1015625 C12.3577133 47.69208937 10.87353618 55.31018174 7 63 C6.5359375 64.7015625 6.5359375 64.7015625 6.0625 66.4375 C2.6350756 77.92945241 -9.54342193 89.32843151 -19.86767578 95.03173828 C-24.51016524 97.48798359 -29.20808203 99.84808531 -34 102 C-34.77786865 102.36101807 -35.5557373 102.72203613 -36.35717773 103.09399414 C-39.38084692 104.13056101 -41.76559513 104.22804518 -44.95703125 104.1953125 C-46.06884766 104.18886719 -47.18066406 104.18242187 -48.32617188 104.17578125 C-50.0519043 104.15064453 -50.0519043 104.15064453 -51.8125 104.125 C-52.98232422 104.11597656 -54.15214844 104.10695313 -55.35742188 104.09765625 C-58.23849053 104.07413732 -61.11913989 104.04126852 -64 104 C-64 103.67 -64 103.34 -64 103 C-63.4423999 102.96559814 -62.8847998 102.93119629 -62.31030273 102.89575195 C-39.64578029 101.39409638 -21.80191554 96.08645025 -6.02734375 78.84375 C6.71790804 63.38137859 10.22398297 45.47946225 9 26 C7.77049596 16.57032918 4.26704462 8.43742479 0 0 Z " fill="#B2B3B1" transform="translate(614,57)"/>
<path d="M0 0 C3.99179045 1.56793287 6.58201989 3.37302983 9 7 C9 8.98 9 10.96 9 13 C0.42 13 -8.16 13 -17 13 C-15.81646402 4.71524811 -15.81646402 4.71524811 -11.09375 1.10546875 C-7.38054005 -0.85505068 -4.05631663 -0.85132571 0 0 Z " fill="#3A3A3A" transform="translate(240,76)"/>
<path d="M0 0 C0 4.29258323 -2.51617278 6.21475505 -5.3125 9.1875 C-5.85793457 9.76830322 -6.40336914 10.34910645 -6.96533203 10.94750977 C-19.22005885 23.70058365 -33.19903126 30.8063808 -50.93359375 31.16796875 C-53.10153991 31.17981545 -55.26952186 31.18621184 -57.4375 31.1875 C-58.51837891 31.19974609 -59.59925781 31.21199219 -60.71289062 31.22460938 C-69.63165179 31.24083514 -77.10465883 30.0657906 -85.3125 26.5 C-86.29863281 26.0771875 -87.28476563 25.654375 -88.30078125 25.21875 C-90.5647764 24.19651196 -92.79025613 23.13374032 -95 22 C-95 21.34 -95 20.68 -95 20 C-95.721875 19.938125 -96.44375 19.87625 -97.1875 19.8125 C-100.84657625 18.75543353 -102.49211602 16.79449929 -105 14 C-104.67 13.34 -104.34 12.68 -104 12 C-103.20078125 12.59167969 -102.4015625 13.18335938 -101.578125 13.79296875 C-86.59838228 24.6649546 -72.57331812 28.3838938 -54.0625 28.25 C-52.96615234 28.25773437 -51.86980469 28.26546875 -50.74023438 28.2734375 C-49.68255859 28.27085937 -48.62488281 28.26828125 -47.53515625 28.265625 C-46.11795288 28.26224121 -46.11795288 28.26224121 -44.67211914 28.25878906 C-41.7790137 27.97859795 -39.64938833 27.16377836 -37 26 C-35.989375 25.7525 -34.97875 25.505 -33.9375 25.25 C-19.53991395 21.10524038 -9.16558771 11.45698464 0 0 Z " fill="#B3B2B2" transform="translate(174,131)"/>
<path d="M0 0 C3 1 3 1 4.02734375 2.78515625 C4.32769531 3.53667969 4.62804687 4.28820313 4.9375 5.0625 C6.19871739 8.12614684 7.53113871 11.03418389 9.125 13.9375 C11.12563981 17.82894057 11.90337879 21.69825331 12.60546875 25.99609375 C12.80483507 27.99056656 12.80483507 27.99056656 14 29 C14.64797112 43.34577913 13.36418206 54.00443739 7 67 C5.875 63.25 5.875 63.25 7 61 C10.26146864 39.02674779 9.46213325 20.31716937 0 0 Z " fill="#B8B2B2" transform="translate(466,57)"/>
<path d="M0 0 C0 6.88533566 -3.97682336 11.68509123 -8.5 16.4375 C-9.02392334 16.99663086 -9.54784668 17.55576172 -10.08764648 18.13183594 C-15.44067833 23.69931032 -21.57353928 29.52451309 -29 32 C-29.59167969 32.63550781 -30.18335938 33.27101562 -30.79296875 33.92578125 C-39.51722805 42.12504087 -55.86706863 41.3389417 -67 41 C-69.38551079 40.78038155 -71.64562684 40.44845203 -74 40 C-74 39.34 -74 38.68 -74 38 C-74.99 37.67 -75.98 37.34 -77 37 C-76.19481934 37.02618408 -75.38963867 37.05236816 -74.56005859 37.0793457 C-53.63459607 38.15500101 -53.63459607 38.15500101 -34 32 C-32.82953125 31.41863281 -31.6590625 30.83726562 -30.453125 30.23828125 C-19.41147499 24.52616612 -8.1931293 16.25795819 -2.8125 4.75 C-1.08185053 1.08185053 -1.08185053 1.08185053 0 0 Z " fill="#E5E5E5" transform="translate(471,124)"/>
<path d="M0 0 C0 4.29258323 -2.51617278 6.21475505 -5.3125 9.1875 C-5.85793457 9.76830322 -6.40336914 10.34910645 -6.96533203 10.94750977 C-19.22005885 23.70058365 -33.19903126 30.8063808 -50.93359375 31.16796875 C-53.10153991 31.17981545 -55.26952186 31.18621184 -57.4375 31.1875 C-58.51837891 31.19974609 -59.59925781 31.21199219 -60.71289062 31.22460938 C-69.63165179 31.24083514 -77.10465883 30.0657906 -85.3125 26.5 C-86.29863281 26.0771875 -87.28476563 25.654375 -88.30078125 25.21875 C-90.5647764 24.19651196 -92.79025613 23.13374032 -95 22 C-95 21.34 -95 20.68 -95 20 C-95.66 20 -96.32 20 -97 20 C-96.67 19.34 -96.34 18.68 -96 18 C-95.11699219 18.47050781 -94.23398438 18.94101563 -93.32421875 19.42578125 C-92.11226805 20.05524402 -90.90001149 20.68411813 -89.6875 21.3125 C-89.11193359 21.62123047 -88.53636719 21.92996094 -87.94335938 22.24804688 C-77.58415043 27.56764066 -67.65357726 28.45895042 -56.125 28.3125 C-54.83335937 28.31572266 -53.54171875 28.31894531 -52.2109375 28.32226562 C-44.3839309 28.30511854 -44.3839309 28.30511854 -37 26 C-35.989375 25.7525 -34.97875 25.505 -33.9375 25.25 C-19.53991395 21.10524038 -9.16558771 11.45698464 0 0 Z " fill="#B8B8B8" transform="translate(321,131)"/>
<path d="M0 0 C2.3017549 2.09740675 3.61120393 3.93208474 4.82421875 6.79296875 C5.10096436 7.43516357 5.37770996 8.0773584 5.6628418 8.73901367 C6.000979 9.54701416 6.33911621 10.35501465 6.6875 11.1875 C7.780625 13.765625 8.87375 16.34375 10 19 C4.39 19 -1.22 19 -7 19 C-6.20643077 14.23858461 -5.35239252 11.01154417 -3.5 6.6875 C-3.0565625 5.63949219 -2.613125 4.59148437 -2.15625 3.51171875 C-1 1 -1 1 0 0 Z " fill="#A91813" transform="translate(408,76)"/>
<path d="M0 0 C1 3 1 3 0.3125 5.4140625 C-6.53666954 18.90855725 -24.20864672 27.40288224 -38 32 C-39.91906917 32.08266486 -41.84089474 32.10740663 -43.76171875 32.09765625 C-44.87998047 32.09443359 -45.99824219 32.09121094 -47.15039062 32.08789062 C-48.31763672 32.07951172 -49.48488281 32.07113281 -50.6875 32.0625 C-51.86634766 32.05798828 -53.04519531 32.05347656 -54.25976562 32.04882812 C-57.17322789 32.03703273 -60.08658863 32.0205727 -63 32 C-63 31.67 -63 31.34 -63 31 C-62.4423999 30.96559814 -61.8847998 30.93119629 -61.31030273 30.89575195 C-39.81356939 29.47146916 -22.50419861 24.84068372 -7 9 C-4.53407492 6.08853211 -2.2166742 3.10481188 0 0 Z " fill="#A4A5A2" transform="translate(613,129)"/>
<path d="M0 0 C1.07490681 3.31187503 1.0053445 3.98503541 -0.25 7.5 C-6.81409304 19.60961992 -19.19883777 30.09742723 -32 35 C-34.3633294 35.63174345 -36.7126311 36.15723263 -39.1171875 36.60546875 C-41.07798719 36.93304784 -41.07798719 36.93304784 -43 38 C-44.54023996 38.06950541 -46.08334988 38.08452357 -47.625 38.0625 C-48.85089844 38.04896484 -48.85089844 38.04896484 -50.1015625 38.03515625 C-50.72804688 38.02355469 -51.35453125 38.01195312 -52 38 C-52 37.67 -52 37.34 -52 37 C-51.00742187 36.79246094 -50.01484375 36.58492187 -48.9921875 36.37109375 C-30.87957049 32.36377826 -15.99717874 24.34951039 -5.1796875 8.859375 C-3.34005959 5.95982902 -1.63572609 3.01980201 0 0 Z " fill="#A2A2A2" transform="translate(322,122)"/>
<path d="M0 0 C1.07490681 3.31187503 1.0053445 3.98503541 -0.25 7.5 C-6.81409304 19.60961992 -19.19883777 30.09742723 -32 35 C-34.3633294 35.63174345 -36.7126311 36.15723263 -39.1171875 36.60546875 C-41.07798719 36.93304784 -41.07798719 36.93304784 -43 38 C-44.54023996 38.06950541 -46.08334988 38.08452357 -47.625 38.0625 C-48.85089844 38.04896484 -48.85089844 38.04896484 -50.1015625 38.03515625 C-50.72804688 38.02355469 -51.35453125 38.01195312 -52 38 C-52 37.67 -52 37.34 -52 37 C-51.00742188 36.79246094 -50.01484375 36.58492187 -48.9921875 36.37109375 C-30.87957049 32.36377826 -15.99717874 24.34951039 -5.1796875 8.859375 C-3.34005959 5.95982902 -1.63572609 3.01980201 0 0 Z " fill="#A1A0A0" transform="translate(175,122)"/>
<path d="M0 0 C5.28880817 0.03434291 5.28880817 0.03434291 8.375 2.1875 C9.6875 4.3125 9.6875 4.3125 9.6875 6.3125 C11.3375 6.3125 12.9875 6.3125 14.6875 6.3125 C13.6975 6.9725 12.7075 7.6325 11.6875 8.3125 C11.6875 8.9725 11.6875 9.6325 11.6875 10.3125 C9.26947805 10.02979594 6.8534878 9.73670736 4.4375 9.4375 C3.75558594 9.35886719 3.07367187 9.28023437 2.37109375 9.19921875 C-1.21946311 8.74604167 -4.205007 8.21864262 -7.3125 6.3125 C-6.27920239 0.55555619 -5.8867913 0.14814442 0 0 Z " fill="#80BB4E" transform="translate(564.3125,81.6875)"/>
<path d="M0 0 C0.66 0 1.32 0 2 0 C10.81365252 17.08906672 11.55373649 37.63783066 6 56 C1.34161491 67.32919255 1.34161491 67.32919255 -2 69 C-0.97012896 65.56709654 0.23561875 62.53833421 2 59.4375 C8.38041926 46.67666148 8.49199461 25.64880535 4.25610352 12.24169922 C3.25558303 9.45883654 2.13591158 6.72991208 1 4 C0.63472334 2.67506157 0.28461803 1.34457483 0 0 Z " fill="#DEDEDE" transform="translate(324,63)"/>
<path d="M0 0 C0.66 0 1.32 0 2 0 C10.81365252 17.08906672 11.55373649 37.63783066 6 56 C1.34161491 67.32919255 1.34161491 67.32919255 -2 69 C-0.97012896 65.56709654 0.23561875 62.53833421 2 59.4375 C8.38041926 46.67666148 8.49199461 25.64880535 4.25610352 12.24169922 C3.25558303 9.45883654 2.13591158 6.72991208 1 4 C0.63472334 2.67506157 0.28461803 1.34457483 0 0 Z " fill="#DEDEDE" transform="translate(177,63)"/>
<path d="M0 0 C0.66 0.33 1.32 0.66 2 1 C-10.94499692 8.66132471 -27.40313297 9.78035562 -42 7 C-42 6.34 -42 5.68 -42 5 C-44.31 5 -46.62 5 -49 5 C-49 4.34 -49 3.68 -49 3 C-47.93394531 3.16113281 -46.86789063 3.32226562 -45.76953125 3.48828125 C-40.08274993 4.19490791 -34.41088211 4.18407077 -28.6875 4.1875 C-27.09131836 4.20586914 -27.09131836 4.20586914 -25.46289062 4.22460938 C-17.61618245 4.23897187 -9.63214053 3.95035282 -2.3112793 0.86791992 C-1.54855713 0.58150635 -0.78583496 0.29509277 0 0 Z " fill="#E5E5E5" transform="translate(292,157)"/>
<path d="M0 0 C0.66 0.33 1.32 0.66 2 1 C-10.94499692 8.66132471 -27.40313297 9.78035562 -42 7 C-42 6.34 -42 5.68 -42 5 C-44.31 5 -46.62 5 -49 5 C-49 4.34 -49 3.68 -49 3 C-47.93394531 3.16113281 -46.86789063 3.32226562 -45.76953125 3.48828125 C-40.08274993 4.19490791 -34.41088211 4.18407077 -28.6875 4.1875 C-27.09131836 4.20586914 -27.09131836 4.20586914 -25.46289062 4.22460938 C-17.61618245 4.23897187 -9.63214053 3.95035282 -2.3112793 0.86791992 C-1.54855713 0.58150635 -0.78583496 0.29509277 0 0 Z " fill="#E5E5E5" transform="translate(145,157)"/>
<path d="M0 0 C0.65484375 0.43570313 1.3096875 0.87140625 1.984375 1.3203125 C21.06242008 13.76954531 37.53086012 17.61983369 60 18 C60 18.33 60 18.66 60 19 C46.87404369 19.75551045 34.71681145 19.65555167 22.0625 15.75 C21.08079834 15.4502124 20.09909668 15.1504248 19.08764648 14.84155273 C12.30413823 12.56466816 12.30413823 12.56466816 10.87280273 9.90722656 C10.58477783 9.2778418 10.29675293 8.64845703 10 8 C9.236875 7.855625 8.47375 7.71125 7.6875 7.5625 C3.95137503 6.78052035 2.43237337 4.84935166 0 2 C0 1.34 0 0.68 0 0 Z " fill="#BBBCBB" transform="translate(511,143)"/>
<path d="M0 0 C1.73546076 2.60319113 2.65175233 4.52267237 3.625 7.4375 C3.88539063 8.19933594 4.14578125 8.96117187 4.4140625 9.74609375 C5 12 5 12 5 16 C1.7 16 -1.6 16 -5 16 C-3.85388265 10.26941324 -2.47605477 5.28975338 0 0 Z " fill="#FCEBEB" transform="translate(408,193)"/>
<path d="M0 0 C0 6.88270003 -3.97537181 11.68830121 -8.5 16.4375 C-9.03189941 17.00025635 -9.56379883 17.5630127 -10.11181641 18.14282227 C-18.57283036 26.88620468 -28.3007868 33.43807394 -40 37 C-42.41015625 36.65234375 -42.41015625 36.65234375 -44 36 C-43.44054687 35.8040625 -42.88109375 35.608125 -42.3046875 35.40625 C-27.01365594 29.70284273 -10.01601319 20.15669759 -2.8125 4.75 C-1.08185053 1.08185053 -1.08185053 1.08185053 0 0 Z " fill="#C9C9C9" transform="translate(471,124)"/>
<path d="M0 0 C0.79277344 0.144375 1.58554687 0.28875 2.40234375 0.4375 C10.99399074 1.80456869 19.42427366 2.21976946 28.125 2.25 C29.76069946 2.26353516 29.76069946 2.26353516 31.42944336 2.27734375 C32.98417358 2.27154297 32.98417358 2.27154297 34.5703125 2.265625 C35.49602051 2.26336914 36.42172852 2.26111328 37.37548828 2.25878906 C40.22758684 1.97755888 42.3689133 1.09568237 45 0 C47.3125 0.375 47.3125 0.375 49 1 C37.13909493 6.94371977 20.45155313 7.29130293 7.71484375 4.09375 C5.03798054 3.20039875 2.52056182 2.26310033 0 1 C0 0.67 0 0.34 0 0 Z " fill="#B2AFAF" transform="translate(386,157)"/>
<path d="M0 0 C0.33 0 0.66 0 1 0 C1.28071518 14.4568319 0.44756823 24.8341641 -6 38 C-7.60844243 33.9585339 -6.33790192 30.84853569 -5.125 26.8125 C-4.75632812 25.56082031 -4.38765625 24.30914062 -4.0078125 23.01953125 C-3 20 -3 20 -2 19 C-1.7882613 16.37091119 -1.62365621 13.75841938 -1.5 11.125 C-1.13345287 3.40035861 -1.13345287 3.40035861 0 0 Z " fill="#D1D1D1" transform="translate(479,86)"/>
<path d="M0 0 C0.65484375 0.43570313 1.3096875 0.87140625 1.984375 1.3203125 C8.76545002 5.74525129 15.69247371 9.5184037 23 13 C23 13.66 23 14.32 23 15 C25.64 15.66 28.28 16.32 31 17 C25.07930135 18.48017466 20.06886387 16.73268597 14.79296875 13.75390625 C12.875 12.4375 12.875 12.4375 10 10 C10 9.34 10 8.68 10 8 C9.278125 7.938125 8.55625 7.87625 7.8125 7.8125 C4.11600926 6.7446249 2.46861132 4.89180184 0 2 C0 1.34 0 0.68 0 0 Z " fill="#D9D6D6" transform="translate(363,143)"/>
<path d="M0 0 C0 4.29258323 -2.51617278 6.21475505 -5.3125 9.1875 C-6.13065186 10.05870483 -6.13065186 10.05870483 -6.96533203 10.94750977 C-15.46434174 19.79213767 -25.20119584 26.40775262 -37 30 C-39.41015625 29.65234375 -39.41015625 29.65234375 -41 29 C-40.44054687 28.8040625 -39.88109375 28.608125 -39.3046875 28.40625 C-23.24543222 22.41630269 -10.76383773 13.38206854 0 0 Z " fill="#CACACA" transform="translate(321,131)"/>
<path d="M0 0 C0 4.29258323 -2.51617278 6.21475505 -5.3125 9.1875 C-6.13065186 10.05870483 -6.13065186 10.05870483 -6.96533203 10.94750977 C-15.46434174 19.79213767 -25.20119584 26.40775262 -37 30 C-39.41015625 29.65234375 -39.41015625 29.65234375 -41 29 C-40.44054687 28.8040625 -39.88109375 28.608125 -39.3046875 28.40625 C-23.24543222 22.41630269 -10.76383773 13.38206854 0 0 Z " fill="#CACACA" transform="translate(174,131)"/>
<path d="M0 0 C0.33 0 0.66 0 1 0 C1 5.94 1 11.88 1 18 C-1.31 18 -3.62 18 -6 18 C-5.41347648 13.51006131 -4.2356462 9.77456816 -2.4375 5.625 C-1.98246094 4.56539063 -1.52742188 3.50578125 -1.05859375 2.4140625 C-0.70925781 1.61742188 -0.35992187 0.82078125 0 0 Z " fill="#DE241F" transform="translate(407,77)"/>
<path d="M0 0 C3.14198057 3.08717858 3.97877673 4.50752366 4.171875 8.98828125 C4.05324081 10.43166384 3.91204963 11.87334494 3.75 13.3125 C3.68425781 14.05306641 3.61851563 14.79363281 3.55078125 15.55664062 C3.38672618 17.37296459 3.19601656 19.18684686 3 21 C2.01 21 1.02 21 0 21 C-0.39252444 18.62673685 -0.76427274 16.25312786 -1.125 13.875 C-1.29322266 12.87726563 -1.29322266 12.87726563 -1.46484375 11.859375 C-2.13081723 7.3307553 -1.77089679 4.21079903 0 0 Z " fill="#A09D7E" transform="translate(114,127)"/>
<path d="M0 0 C0 3 0 3 -1.36328125 4.76171875 C-10.53653543 13.82467328 -20.55385382 21.21066378 -33 25 C-35.41015625 24.65234375 -35.41015625 24.65234375 -37 24 C-36.44054687 23.8040625 -35.88109375 23.608125 -35.3046875 23.40625 C-21.14037138 18.12309672 -10.56043795 10.56043795 0 0 Z " fill="#C9C9C9" transform="translate(612,136)"/>
<path d="M0 0 C0.495 0.99 0.495 0.99 1 2 C-4.63167267 8.33563175 -10.84158789 11.06280471 -19.1171875 12.60546875 C-21.07798719 12.93304784 -21.07798719 12.93304784 -23 14 C-24.54023996 14.06950541 -26.08334988 14.08452357 -27.625 14.0625 C-28.85089844 14.04896484 -28.85089844 14.04896484 -30.1015625 14.03515625 C-31.04128906 14.01775391 -31.04128906 14.01775391 -32 14 C-32 13.67 -32 13.34 -32 13 C-31.00742187 12.79246094 -30.01484375 12.58492187 -28.9921875 12.37109375 C-19.10878622 10.17614179 -7.38339832 7.38339832 0 0 Z " fill="#A19695" transform="translate(449,146)"/>
<path d="M0 0 C0.495 0.99 0.495 0.99 1 2 C-4.63167267 8.33563175 -10.84158789 11.06280471 -19.1171875 12.60546875 C-21.07798719 12.93304784 -21.07798719 12.93304784 -23 14 C-24.54023996 14.06950541 -26.08334988 14.08452357 -27.625 14.0625 C-28.85089844 14.04896484 -28.85089844 14.04896484 -30.1015625 14.03515625 C-31.04128906 14.01775391 -31.04128906 14.01775391 -32 14 C-32 13.67 -32 13.34 -32 13 C-31.00742187 12.79246094 -30.01484375 12.58492187 -28.9921875 12.37109375 C-19.10878622 10.17614179 -7.38339832 7.38339832 0 0 Z " fill="#969696" transform="translate(302,146)"/>
<path d="M0 0 C0.495 0.99 0.495 0.99 1 2 C-4.63167267 8.33563175 -10.84158789 11.06280471 -19.1171875 12.60546875 C-21.07798719 12.93304784 -21.07798719 12.93304784 -23 14 C-24.54023996 14.06950541 -26.08334988 14.08452357 -27.625 14.0625 C-28.85089844 14.04896484 -28.85089844 14.04896484 -30.1015625 14.03515625 C-31.04128906 14.01775391 -31.04128906 14.01775391 -32 14 C-32 13.67 -32 13.34 -32 13 C-31.00742188 12.79246094 -30.01484375 12.58492187 -28.9921875 12.37109375 C-19.10878622 10.17614179 -7.38339832 7.38339832 0 0 Z " fill="#999797" transform="translate(155,146)"/>
<path d="M0 0 C0.66 0 1.32 0 2 0 C0.46374376 9.98566555 -10.41989144 19.16914726 -18 25 C-18 24.01 -18 23.02 -18 22 C-16.56640625 20.6328125 -16.56640625 20.6328125 -14.5625 19.125 C-8.49827555 14.08952791 -3.52484309 7.04968619 0 0 Z " fill="#232323" transform="translate(319,123)"/>
<path d="M0 0 C-1.32 1.32 -2.64 2.64 -4 4 C-3.34 4.33 -2.68 4.66 -2 5 C-6.95 6.485 -6.95 6.485 -12 8 C-12.33 7.01 -12.66 6.02 -13 5 C-13.66 4.34 -14.32 3.68 -15 3 C-9.89665983 1.094753 -5.53657294 -0.42589023 0 0 Z " fill="#B8A3A2" transform="translate(411,47)"/>
<path d="M0 0 C0.33 0 0.66 0 1 0 C1.33 1.65 1.66 3.3 2 5 C2.66 3.35 3.32 1.7 4 0 C4.33 0 4.66 0 5 0 C4.91306859 1.79258558 4.80489496 3.58415144 4.6875 5.375 C4.62949219 6.37273437 4.57148438 7.37046875 4.51171875 8.3984375 C4.34285156 9.25695312 4.17398437 10.11546875 4 11 C3.01 11.66 2.02 12.32 1 13 C0.34 13.99 -0.32 14.98 -1 16 C-0.67 10.72 -0.34 5.44 0 0 Z " fill="#B39C9B" transform="translate(445,102)"/>
<path d="M0 0 C0.73605469 0.47050781 1.47210937 0.94101563 2.23046875 1.42578125 C3.20628906 2.04839844 4.18210937 2.67101562 5.1875 3.3125 C6.15042969 3.92738281 7.11335937 4.54226562 8.10546875 5.17578125 C9.98644837 6.36122994 11.90601153 7.48823268 13.86328125 8.54296875 C14.92095703 9.26419922 14.92095703 9.26419922 16 10 C16 10.99 16 11.98 16 13 C13.5625 12.1875 13.5625 12.1875 11 11 C10.67 10.01 10.34 9.02 10 8 C9.278125 7.938125 8.55625 7.87625 7.8125 7.8125 C4.11600926 6.7446249 2.46861132 4.89180184 0 2 C0 1.34 0 0.68 0 0 Z " fill="#D5D7D4" transform="translate(511,143)"/>
<path d="M0 0 C0.7974855 2.31995782 1.11434828 3.61982909 0.3984375 6 C-1.82693347 10.34881655 -3.83175254 13.22116836 -8 16 C-8.66 15.67 -9.32 15.34 -10 15 C-9.61328125 14.50371094 -9.2265625 14.00742188 -8.828125 13.49609375 C-5.49729049 9.15116853 -2.60742538 4.81370839 0 0 Z " fill="#9B9B9B" transform="translate(322,122)"/>
<path d="M0 0 C0.66 0 1.32 0 2 0 C3.296875 1.50390625 3.296875 1.50390625 4.75 3.5625 C7.64682256 7.56525236 10.74684614 11.28210987 14 15 C11 15 11 15 9.31640625 13.6796875 C0 4.0935412 0 4.0935412 0 0 Z " fill="#292929" transform="translate(205,128)"/>
<path d="M0 0 C1.48288168 3.85549237 0.42952315 6.23809697 -1 10 C-1.226875 10.99 -1.45375 11.98 -1.6875 13 C-3.506579 17.15789486 -6.4319559 19.30965659 -10 22 C-8.81539469 19.52502105 -7.62788545 17.48834249 -6 15.25 C-3.64252055 11.41909589 -2.9871955 8.37186578 -2 4 C-0.875 1.5 -0.875 1.5 0 0 Z " fill="#D7D7D7" transform="translate(623,114)"/>
<path d="M0 0 C11.52164009 7.29840547 11.52164009 7.29840547 17 11 C16.67 11.66 16.34 12.32 16 13 C14.02 12.01 12.04 11.02 10 10 C10 9.34 10 8.68 10 8 C9.278125 7.938125 8.55625 7.87625 7.8125 7.8125 C4.11600926 6.7446249 2.46861132 4.89180184 0 2 C0 1.34 0 0.68 0 0 Z " fill="#D1D0D0" transform="translate(69,143)"/>
<path d="M0 0 C0.33 0 0.66 0 1 0 C1 9.9 1 19.8 1 30 C0.67 30 0.34 30 0 30 C-0.02505615 29.34926514 -0.0501123 28.69853027 -0.07592773 28.02807617 C-0.19193702 25.08101954 -0.31464115 22.1342787 -0.4375 19.1875 C-0.47681641 18.16333984 -0.51613281 17.13917969 -0.55664062 16.08398438 C-0.59853516 15.10107422 -0.64042969 14.11816406 -0.68359375 13.10546875 C-0.73858032 11.74651489 -0.73858032 11.74651489 -0.79467773 10.36010742 C-0.9208205 7.84951218 -0.9208205 7.84951218 -2 5 C-1.0625 2.3125 -1.0625 2.3125 0 0 Z " fill="#E4EDE4" transform="translate(128,192)"/>
<path d="M0 0 C1.29857841 3.89573524 0.38622785 5.20393451 -1.1875 8.9375 C-1.61417969 9.97777344 -2.04085938 11.01804687 -2.48046875 12.08984375 C-3.99913481 14.99834301 -5.56213707 16.83359076 -8 19 C-6.71144097 14.70480323 -4.99493155 10.87167664 -2.953125 6.90234375 C-1.82581771 4.65234929 -0.88335259 2.3556069 0 0 Z " fill="#E9E9E9" transform="translate(477,113)"/>
<path d="M0 0 C1.29857841 3.89573524 0.38622785 5.20393451 -1.1875 8.9375 C-1.61417969 9.97777344 -2.04085938 11.01804687 -2.48046875 12.08984375 C-3.99913481 14.99834301 -5.56213707 16.83359076 -8 19 C-6.71144097 14.70480323 -4.99493155 10.87167664 -2.953125 6.90234375 C-1.82581771 4.65234929 -0.88335259 2.3556069 0 0 Z " fill="#E9E9E9" transform="translate(330,113)"/>
<path d="M0 0 C1.29857841 3.89573524 0.38622785 5.20393451 -1.1875 8.9375 C-1.61417969 9.97777344 -2.04085937 11.01804687 -2.48046875 12.08984375 C-3.99913481 14.99834301 -5.56213707 16.83359076 -8 19 C-6.71144097 14.70480323 -4.99493155 10.87167664 -2.953125 6.90234375 C-1.82581771 4.65234929 -0.88335259 2.3556069 0 0 Z " fill="#E9E9E9" transform="translate(183,113)"/>
<path d="M0 0 C0.33 0.99 0.66 1.98 1 3 C-0.2578125 4.8671875 -0.2578125 4.8671875 -2.125 6.875 C-2.76824219 7.57367188 -3.41148437 8.27234375 -4.07421875 8.9921875 C-6.35055418 11.36548651 -8.63910992 13.71065204 -11 16 C-11.66 15.67 -12.32 15.34 -13 15 C-12.48050781 14.50371094 -11.96101562 14.00742188 -11.42578125 13.49609375 C-7.07159457 9.25458473 -3.37180778 5.05771167 0 0 Z " fill="#979B94" transform="translate(613,129)"/>
<path d="M0 0 C2.91024202 2.50058918 4.16791164 5.19655377 5.6875 8.6875 C6.12449219 9.68136719 6.56148437 10.67523438 7.01171875 11.69921875 C7.33785156 12.45847656 7.66398438 13.21773437 8 14 C7.01 14 6.02 14 5 14 C4.15973604 12.23244474 3.32801278 10.46082737 2.5 8.6875 C2.0359375 7.70136719 1.571875 6.71523437 1.09375 5.69921875 C0 3 0 3 0 0 Z " fill="#232323" transform="translate(198,113)"/>
<path d="M0 0 C0.33 0.66 0.66 1.32 1 2 C1.66 2 2.32 2 3 2 C2.375 8.625 2.375 8.625 -1 12 C-0.67 8.04 -0.34 4.08 0 0 Z " fill="#B3B4B5" transform="translate(447,96)"/>
<path d="M0 0 C-0.33 1.32 -0.66 2.64 -1 4 C-2.65 4.33 -4.3 4.66 -6 5 C-5.6875 3.0625 -5.6875 3.0625 -5 1 C-2 0 -2 0 0 0 Z " fill="#B5B3B3" transform="translate(431,129)"/>
<path d="M0 0 C0.33 0 0.66 0 1 0 C1.17942163 3.94727588 1.09350689 6.5980513 -1 10 C-1.66 10 -2.32 10 -3 10 C-2.01 6.7 -1.02 3.4 0 0 Z " fill="#9DA09B" transform="translate(621,112)"/>
<path d="M0 0 C0.33 0 0.66 0 1 0 C1.17942163 3.94727588 1.09350689 6.5980513 -1 10 C-1.66 10 -2.32 10 -3 10 C-2.01 6.7 -1.02 3.4 0 0 Z " fill="#A19999" transform="translate(473,112)"/>
<path d="M0 0 C0.33 0 0.66 0 1 0 C1.17942163 3.94727588 1.09350689 6.5980513 -1 10 C-1.66 10 -2.32 10 -3 10 C-2.01 6.7 -1.02 3.4 0 0 Z " fill="#9A9A9A" transform="translate(326,112)"/>
<path d="M0 0 C0.33 0 0.66 0 1 0 C1.17942163 3.94727588 1.09350689 6.5980513 -1 10 C-1.66 10 -2.32 10 -3 10 C-2.01 6.7 -1.02 3.4 0 0 Z " fill="#9C9A9A" transform="translate(179,112)"/>
<path d="M0 0 C2.64 1.65 5.28 3.3 8 5 C6.68 5.33 5.36 5.66 4 6 C1.75 4.1875 1.75 4.1875 0 2 C0 1.34 0 0.68 0 0 Z " fill="#CFCFCF" transform="translate(216,143)"/>
<path d="M0 0 C-0.33 1.98 -0.66 3.96 -1 6 C-1.99 6.33 -2.98 6.66 -4 7 C-4 5.02 -4 3.04 -4 1 C-2 0 -2 0 0 0 Z " fill="#B5A3A3" transform="translate(417,135)"/>
</svg>
