<svg width="14" height="16" viewBox="0 0 14 16" fill="none" xmlns="http://www.w3.org/2000/svg">
<path id="Vector" d="M13.5216 12.8087L11.3651 10.3405C11.2276 10.1832 11.0592 10.0559 10.8703 9.9666C10.0523 9.5798 9.76683 8.56353 10.0149 7.69334C10.1813 7.10963 10.2672 6.49612 10.2666 5.87489C10.2666 2.63536 7.96381 -0.00016737 5.13328 -0.00016737C2.30274 -0.00016737 -4.63787e-05 2.63536 -4.63787e-05 5.87489C-4.63787e-05 9.11441 2.30274 11.7499 5.13328 11.7499C5.5583 11.7505 5.97916 11.6903 6.38659 11.5728C7.30123 11.309 8.43528 11.6058 8.75852 12.5011C8.81682 12.6626 8.9047 12.8118 9.01766 12.9411L11.2116 15.4523C11.3633 15.6259 11.5433 15.7636 11.7415 15.8575C11.9397 15.9515 12.152 15.9998 12.3665 15.9998C12.581 15.9998 12.7934 15.9515 12.9916 15.8576C13.1898 15.7636 13.3698 15.6259 13.5215 15.4523C13.6732 15.2788 13.7935 15.0727 13.8756 14.8459C13.9577 14.6191 13.9999 14.376 14 14.1305C14 13.885 13.9577 13.6419 13.8756 13.4151C13.7936 13.1883 13.6733 12.9822 13.5216 12.8087ZM0.933285 5.87489C0.933285 3.22444 2.81745 1.06802 5.13328 1.06802C7.4491 1.06802 9.33327 3.22444 9.33327 5.87489C9.33327 8.52534 7.4491 10.6818 5.13328 10.6818C2.81745 10.6818 0.933285 8.52534 0.933285 5.87489ZM12.8616 14.697C12.7302 14.847 12.5522 14.9312 12.3666 14.9312C12.181 14.9312 12.003 14.847 11.8716 14.697L9.73549 12.2522C9.67123 12.1786 9.62125 12.0938 9.58809 12.0019L9.52474 11.8264C9.30996 11.2314 9.9228 10.6744 10.4947 10.9447C10.5828 10.9864 10.6614 11.0458 10.7255 11.1192L12.8616 13.564C12.9927 13.7143 13.0663 13.9181 13.0663 14.1305C13.0663 14.3429 12.9927 14.5466 12.8616 14.697Z" fill="white"/>
</svg>
